<?xml version="1.0" encoding="UTF-8"?>
<!DOCTYPE svg PUBLIC "-//W3C//DTD SVG 1.1//EN" "http://www.w3.org/Graphics/SVG/1.1/DTD/svg11.dtd">
<svg version="1.2" width="279.4mm" height="215.9mm" viewBox="0 0 27940 21590" preserveAspectRatio="xMidYMid" fill-rule="evenodd" stroke-width="28.222" stroke-linejoin="round" xmlns="http://www.w3.org/2000/svg" xmlns:ooo="http://xml.openoffice.org/svg/export" xmlns:xlink="http://www.w3.org/1999/xlink" xmlns:presentation="http://sun.com/xmlns/staroffice/presentation" xmlns:smil="http://www.w3.org/2001/SMIL20/" xmlns:anim="urn:oasis:names:tc:opendocument:xmlns:animation:1.0" xml:space="preserve">
 <defs class="ClipPathGroup">
  <clipPath id="presentation_clip_path" clipPathUnits="userSpaceOnUse">
   <rect x="0" y="0" width="27940" height="21590"/>
  </clipPath>
  <clipPath id="presentation_clip_path_shrink" clipPathUnits="userSpaceOnUse">
   <rect x="27" y="21" width="27885" height="21547"/>
  </clipPath>
 </defs>
 <defs class="TextShapeIndex">
  <g ooo:slide="id1" ooo:id-list="id3 id4 id5 id6 id7 id8 id9 id10 id11 id12 id13 id14 id15 id16 id17 id18 id19 id20 id21 id22 id23 id24 id25 id26 id27 id28 id29 id30 id31 id32 id33 id34 id35 id36 id37 id38 id39 id40 id41 id42 id43 id44 id45 id46 id47 id48 id49 id50 id51 id52 id53 id54 id55 id56 id57 id58 id59 id60 id61 id62 id63 id64 id65 id66 id67 id68 id69 id70 id71 id72 id73 id74 id75 id76 id77 id78 id79 id80 id81 id82 id83 id84 id85 id86"/>
 </defs>
 <defs class="EmbeddedBulletChars">
  <g id="bullet-char-template-57356" transform="scale(0.00048828125,-0.00048828125)">
   <path d="M 580,1141 L 1163,571 580,0 -4,571 580,1141 Z"/>
  </g>
  <g id="bullet-char-template-57354" transform="scale(0.00048828125,-0.00048828125)">
   <path d="M 8,1128 L 1137,1128 1137,0 8,0 8,1128 Z"/>
  </g>
  <g id="bullet-char-template-10146" transform="scale(0.00048828125,-0.00048828125)">
   <path d="M 174,0 L 602,739 174,1481 1456,739 174,0 Z M 1358,739 L 309,1346 659,739 1358,739 Z"/>
  </g>
  <g id="bullet-char-template-10132" transform="scale(0.00048828125,-0.00048828125)">
   <path d="M 2015,739 L 1276,0 717,0 1260,543 174,543 174,936 1260,936 717,1481 1274,1481 2015,739 Z"/>
  </g>
  <g id="bullet-char-template-10007" transform="scale(0.00048828125,-0.00048828125)">
   <path d="M 0,-2 C -7,14 -16,27 -25,37 L 356,567 C 262,823 215,952 215,954 215,979 228,992 255,992 264,992 276,990 289,987 310,991 331,999 354,1012 L 381,999 492,748 772,1049 836,1024 860,1049 C 881,1039 901,1025 922,1006 886,937 835,863 770,784 769,783 710,716 594,584 L 774,223 C 774,196 753,168 711,139 L 727,119 C 717,90 699,76 672,76 641,76 570,178 457,381 L 164,-76 C 142,-110 111,-127 72,-127 30,-127 9,-110 8,-76 1,-67 -2,-52 -2,-32 -2,-23 -1,-13 0,-2 Z"/>
  </g>
  <g id="bullet-char-template-10004" transform="scale(0.00048828125,-0.00048828125)">
   <path d="M 285,-33 C 182,-33 111,30 74,156 52,228 41,333 41,471 41,549 55,616 82,672 116,743 169,778 240,778 293,778 328,747 346,684 L 369,508 C 377,444 397,411 428,410 L 1163,1116 C 1174,1127 1196,1133 1229,1133 1271,1133 1292,1118 1292,1087 L 1292,965 C 1292,929 1282,901 1262,881 L 442,47 C 390,-6 338,-33 285,-33 Z"/>
  </g>
  <g id="bullet-char-template-9679" transform="scale(0.00048828125,-0.00048828125)">
   <path d="M 813,0 C 632,0 489,54 383,161 276,268 223,411 223,592 223,773 276,916 383,1023 489,1130 632,1184 813,1184 992,1184 1136,1130 1245,1023 1353,916 1407,772 1407,592 1407,412 1353,268 1245,161 1136,54 992,0 813,0 Z"/>
  </g>
  <g id="bullet-char-template-8226" transform="scale(0.00048828125,-0.00048828125)">
   <path d="M 346,457 C 273,457 209,483 155,535 101,586 74,649 74,723 74,796 101,859 155,911 209,963 273,989 346,989 419,989 480,963 531,910 582,859 608,796 608,723 608,648 583,586 532,535 482,483 420,457 346,457 Z"/>
  </g>
  <g id="bullet-char-template-8211" transform="scale(0.00048828125,-0.00048828125)">
   <path d="M -4,459 L 1135,459 1135,606 -4,606 -4,459 Z"/>
  </g>
  <g id="bullet-char-template-61548" transform="scale(0.00048828125,-0.00048828125)">
   <path d="M 173,740 C 173,903 231,1043 346,1159 462,1274 601,1332 765,1332 928,1332 1067,1274 1183,1159 1299,1043 1357,903 1357,740 1357,577 1299,437 1183,322 1067,206 928,148 765,148 601,148 462,206 346,322 231,437 173,577 173,740 Z"/>
  </g>
 </defs>
 <g>
  <g id="id2" class="Master_Slide">
   <g id="bg-id2" class="Background"/>
   <g id="bo-id2" class="BackgroundObjects"/>
  </g>
 </g>
 <g class="SlideGroup">
  <g>
   <g id="container-id1">
    <g id="id1" class="Slide" clip-path="url(#presentation_clip_path)">
     <g class="Page">
      <g class="com.sun.star.drawing.CustomShape">
       <g id="id3">
        <rect class="BoundingBox" stroke="none" fill="none" x="1799" y="2599" width="24303" height="403"/>
        <path fill="rgb(255,233,148)" stroke="none" d="M 13950,3000 L 1800,3000 1800,2600 26100,2600 26100,3000 13950,3000 Z"/>
        <path fill="none" stroke="rgb(255,233,148)" d="M 13950,3000 L 1800,3000 1800,2600 26100,2600 26100,3000 13950,3000 Z"/>
       </g>
      </g>
      <g class="com.sun.star.drawing.CustomShape">
       <g id="id4">
        <rect class="BoundingBox" stroke="none" fill="none" x="1799" y="1599" width="24303" height="403"/>
        <path fill="rgb(255,233,148)" stroke="none" d="M 13950,2000 L 1800,2000 1800,1600 26100,1600 26100,2000 13950,2000 Z"/>
        <path fill="none" stroke="rgb(255,233,148)" d="M 13950,2000 L 1800,2000 1800,1600 26100,1600 26100,2000 13950,2000 Z"/>
       </g>
      </g>
      <g class="com.sun.star.drawing.CustomShape">
       <g id="id5">
        <rect class="BoundingBox" stroke="none" fill="none" x="2004" y="2299" width="1003" height="303"/>
        <path fill="rgb(255,166,166)" stroke="none" d="M 2505,2600 L 2005,2600 2005,2300 3005,2300 3005,2600 2505,2600 Z"/>
        <path fill="none" stroke="rgb(255,166,166)" d="M 2505,2600 L 2005,2600 2005,2300 3005,2300 3005,2600 2505,2600 Z"/>
       </g>
      </g>
      <g class="com.sun.star.drawing.CustomShape">
       <g id="id6">
        <rect class="BoundingBox" stroke="none" fill="none" x="7999" y="2299" width="1003" height="303"/>
        <path fill="rgb(114,159,207)" stroke="none" d="M 8500,2600 L 8000,2600 8000,2300 9000,2300 9000,2600 8500,2600 Z"/>
        <path fill="none" stroke="rgb(114,159,207)" d="M 8500,2600 L 8000,2600 8000,2300 9000,2300 9000,2600 8500,2600 Z"/>
       </g>
      </g>
      <g class="com.sun.star.drawing.CustomShape">
       <g id="id7">
        <rect class="BoundingBox" stroke="none" fill="none" x="10999" y="2299" width="1003" height="303"/>
        <path fill="rgb(225,97,115)" stroke="none" d="M 11500,2600 L 11000,2600 11000,2300 12000,2300 12000,2600 11500,2600 Z"/>
        <path fill="none" stroke="rgb(225,97,115)" d="M 11500,2600 L 11000,2600 11000,2300 12000,2300 12000,2600 11500,2600 Z"/>
       </g>
      </g>
      <g class="com.sun.star.drawing.CustomShape">
       <g id="id8">
        <rect class="BoundingBox" stroke="none" fill="none" x="4999" y="2299" width="1003" height="303"/>
        <path fill="rgb(175,208,149)" stroke="none" d="M 5500,2600 L 5000,2600 5000,2300 6000,2300 6000,2600 5500,2600 Z"/>
        <path fill="none" stroke="rgb(175,208,149)" d="M 5500,2600 L 5000,2600 5000,2300 6000,2300 6000,2600 5500,2600 Z"/>
       </g>
      </g>
      <g class="com.sun.star.drawing.CustomShape">
       <g id="id9">
        <rect class="BoundingBox" stroke="none" fill="none" x="13999" y="2299" width="1003" height="303"/>
        <path fill="rgb(225,97,115)" stroke="none" d="M 14500,2600 L 14000,2600 14000,2300 15000,2300 15000,2600 14500,2600 Z"/>
        <path fill="none" stroke="rgb(225,97,115)" d="M 14500,2600 L 14000,2600 14000,2300 15000,2300 15000,2600 14500,2600 Z"/>
       </g>
      </g>
      <g class="com.sun.star.drawing.CustomShape">
       <g id="id10">
        <rect class="BoundingBox" stroke="none" fill="none" x="16999" y="2299" width="1003" height="303"/>
        <path fill="rgb(255,166,166)" stroke="none" d="M 17500,2600 L 17000,2600 17000,2300 18000,2300 18000,2600 17500,2600 Z"/>
        <path fill="none" stroke="rgb(255,166,166)" d="M 17500,2600 L 17000,2600 17000,2300 18000,2300 18000,2600 17500,2600 Z"/>
       </g>
      </g>
      <g class="com.sun.star.drawing.CustomShape">
       <g id="id11">
        <rect class="BoundingBox" stroke="none" fill="none" x="19999" y="2299" width="1003" height="303"/>
        <path fill="rgb(255,166,166)" stroke="none" d="M 20500,2600 L 20000,2600 20000,2300 21000,2300 21000,2600 20500,2600 Z"/>
        <path fill="none" stroke="rgb(255,166,166)" d="M 20500,2600 L 20000,2600 20000,2300 21000,2300 21000,2600 20500,2600 Z"/>
       </g>
      </g>
      <g class="com.sun.star.drawing.CustomShape">
       <g id="id12">
        <rect class="BoundingBox" stroke="none" fill="none" x="22999" y="2299" width="1003" height="303"/>
        <path fill="rgb(114,159,207)" stroke="none" d="M 23500,2600 L 23000,2600 23000,2300 24000,2300 24000,2600 23500,2600 Z"/>
        <path fill="none" stroke="rgb(52,101,164)" d="M 23500,2600 L 23000,2600 23000,2300 24000,2300 24000,2600 23500,2600 Z"/>
       </g>
      </g>
      <g class="com.sun.star.drawing.CustomShape">
       <g id="id13">
        <rect class="BoundingBox" stroke="none" fill="none" x="22999" y="2299" width="1003" height="303"/>
        <path fill="rgb(175,208,149)" stroke="none" d="M 23500,2600 L 23000,2600 23000,2300 24000,2300 24000,2600 23500,2600 Z"/>
        <path fill="none" stroke="rgb(175,208,149)" d="M 23500,2600 L 23000,2600 23000,2300 24000,2300 24000,2600 23500,2600 Z"/>
       </g>
      </g>
      <g class="com.sun.star.drawing.CustomShape">
       <g id="id14">
        <rect class="BoundingBox" stroke="none" fill="none" x="22999" y="1999" width="1003" height="303"/>
        <path fill="rgb(225,97,115)" stroke="none" d="M 23500,2300 L 23000,2300 23000,2000 24000,2000 24000,2300 23500,2300 Z"/>
        <path fill="none" stroke="rgb(225,97,115)" d="M 23500,2300 L 23000,2300 23000,2000 24000,2000 24000,2300 23500,2300 Z"/>
       </g>
      </g>
      <g class="com.sun.star.drawing.CustomShape">
       <g id="id15">
        <rect class="BoundingBox" stroke="none" fill="none" x="19999" y="1999" width="1003" height="303"/>
        <path fill="rgb(114,159,207)" stroke="none" d="M 20500,2300 L 20000,2300 20000,2000 21000,2000 21000,2300 20500,2300 Z"/>
        <path fill="none" stroke="rgb(114,159,207)" d="M 20500,2300 L 20000,2300 20000,2000 21000,2000 21000,2300 20500,2300 Z"/>
       </g>
      </g>
      <g class="com.sun.star.drawing.CustomShape">
       <g id="id16">
        <rect class="BoundingBox" stroke="none" fill="none" x="16999" y="1999" width="1003" height="303"/>
        <path fill="rgb(114,159,207)" stroke="none" d="M 17500,2300 L 17000,2300 17000,2000 18000,2000 18000,2300 17500,2300 Z"/>
        <path fill="none" stroke="rgb(114,159,207)" d="M 17500,2300 L 17000,2300 17000,2000 18000,2000 18000,2300 17500,2300 Z"/>
       </g>
      </g>
      <g class="com.sun.star.drawing.CustomShape">
       <g id="id17">
        <rect class="BoundingBox" stroke="none" fill="none" x="13999" y="1999" width="1003" height="303"/>
        <path fill="rgb(175,208,149)" stroke="none" d="M 14500,2300 L 14000,2300 14000,2000 15000,2000 15000,2300 14500,2300 Z"/>
        <path fill="none" stroke="rgb(175,208,149)" d="M 14500,2300 L 14000,2300 14000,2000 15000,2000 15000,2300 14500,2300 Z"/>
       </g>
      </g>
      <g class="com.sun.star.drawing.CustomShape">
       <g id="id18">
        <rect class="BoundingBox" stroke="none" fill="none" x="10999" y="1999" width="1003" height="303"/>
        <path fill="rgb(175,208,149)" stroke="none" d="M 11500,2300 L 11000,2300 11000,2000 12000,2000 12000,2300 11500,2300 Z"/>
        <path fill="none" stroke="rgb(175,208,149)" d="M 11500,2300 L 11000,2300 11000,2000 12000,2000 12000,2300 11500,2300 Z"/>
       </g>
      </g>
      <g class="com.sun.star.drawing.CustomShape">
       <g id="id19">
        <rect class="BoundingBox" stroke="none" fill="none" x="7999" y="1999" width="1003" height="303"/>
        <path fill="rgb(255,166,166)" stroke="none" d="M 8500,2300 L 8000,2300 8000,2000 9000,2000 9000,2300 8500,2300 Z"/>
        <path fill="none" stroke="rgb(255,166,166)" d="M 8500,2300 L 8000,2300 8000,2000 9000,2000 9000,2300 8500,2300 Z"/>
       </g>
      </g>
      <g class="com.sun.star.drawing.CustomShape">
       <g id="id20">
        <rect class="BoundingBox" stroke="none" fill="none" x="4999" y="1999" width="1003" height="303"/>
        <path fill="rgb(225,97,115)" stroke="none" d="M 5500,2300 L 5000,2300 5000,2000 6000,2000 6000,2300 5500,2300 Z"/>
        <path fill="none" stroke="rgb(225,97,115)" d="M 5500,2300 L 5000,2300 5000,2000 6000,2000 6000,2300 5500,2300 Z"/>
       </g>
      </g>
      <g class="com.sun.star.drawing.CustomShape">
       <g id="id21">
        <rect class="BoundingBox" stroke="none" fill="none" x="2004" y="1999" width="1003" height="303"/>
        <path fill="rgb(114,159,207)" stroke="none" d="M 2505,2300 L 2005,2300 2005,2000 3005,2000 3005,2300 2505,2300 Z"/>
        <path fill="none" stroke="rgb(114,159,207)" d="M 2505,2300 L 2005,2300 2005,2000 3005,2000 3005,2300 2505,2300 Z"/>
       </g>
      </g>
      <g class="com.sun.star.drawing.CustomShape">
       <g id="id22">
        <rect class="BoundingBox" stroke="none" fill="none" x="1799" y="5599" width="24303" height="403"/>
        <path fill="rgb(255,233,148)" stroke="none" d="M 13950,6000 L 1800,6000 1800,5600 26100,5600 26100,6000 13950,6000 Z"/>
        <path fill="none" stroke="rgb(255,233,148)" d="M 13950,6000 L 1800,6000 1800,5600 26100,5600 26100,6000 13950,6000 Z"/>
       </g>
      </g>
      <g class="com.sun.star.drawing.CustomShape">
       <g id="id23">
        <rect class="BoundingBox" stroke="none" fill="none" x="2404" y="5299" width="1003" height="303"/>
        <path fill="rgb(255,166,166)" stroke="none" d="M 2905,5600 L 2405,5600 2405,5300 3405,5300 3405,5600 2905,5600 Z"/>
        <path fill="none" stroke="rgb(255,166,166)" d="M 2905,5600 L 2405,5600 2405,5300 3405,5300 3405,5600 2905,5600 Z"/>
       </g>
      </g>
      <g class="com.sun.star.drawing.CustomShape">
       <g id="id24">
        <rect class="BoundingBox" stroke="none" fill="none" x="5399" y="5299" width="1003" height="303"/>
        <path fill="rgb(175,208,149)" stroke="none" d="M 5900,5600 L 5400,5600 5400,5300 6400,5300 6400,5600 5900,5600 Z"/>
        <path fill="none" stroke="rgb(175,208,149)" d="M 5900,5600 L 5400,5600 5400,5300 6400,5300 6400,5600 5900,5600 Z"/>
       </g>
      </g>
      <g class="com.sun.star.drawing.CustomShape">
       <g id="id25">
        <rect class="BoundingBox" stroke="none" fill="none" x="8399" y="5299" width="1003" height="303"/>
        <path fill="rgb(114,159,207)" stroke="none" d="M 8900,5600 L 8400,5600 8400,5300 9400,5300 9400,5600 8900,5600 Z"/>
        <path fill="none" stroke="rgb(114,159,207)" d="M 8900,5600 L 8400,5600 8400,5300 9400,5300 9400,5600 8900,5600 Z"/>
       </g>
      </g>
      <g class="com.sun.star.drawing.CustomShape">
       <g id="id26">
        <rect class="BoundingBox" stroke="none" fill="none" x="11399" y="5299" width="1003" height="303"/>
        <path fill="rgb(225,97,115)" stroke="none" d="M 11900,5600 L 11400,5600 11400,5300 12400,5300 12400,5600 11900,5600 Z"/>
        <path fill="none" stroke="rgb(225,97,115)" d="M 11900,5600 L 11400,5600 11400,5300 12400,5300 12400,5600 11900,5600 Z"/>
       </g>
      </g>
      <g class="com.sun.star.drawing.CustomShape">
       <g id="id27">
        <rect class="BoundingBox" stroke="none" fill="none" x="14399" y="5299" width="1003" height="303"/>
        <path fill="rgb(225,97,115)" stroke="none" d="M 14900,5600 L 14400,5600 14400,5300 15400,5300 15400,5600 14900,5600 Z"/>
        <path fill="none" stroke="rgb(225,97,115)" d="M 14900,5600 L 14400,5600 14400,5300 15400,5300 15400,5600 14900,5600 Z"/>
       </g>
      </g>
      <g class="com.sun.star.drawing.CustomShape">
       <g id="id28">
        <rect class="BoundingBox" stroke="none" fill="none" x="17399" y="5299" width="1003" height="303"/>
        <path fill="rgb(255,166,166)" stroke="none" d="M 17900,5600 L 17400,5600 17400,5300 18400,5300 18400,5600 17900,5600 Z"/>
        <path fill="none" stroke="rgb(255,166,166)" d="M 17900,5600 L 17400,5600 17400,5300 18400,5300 18400,5600 17900,5600 Z"/>
       </g>
      </g>
      <g class="com.sun.star.drawing.CustomShape">
       <g id="id29">
        <rect class="BoundingBox" stroke="none" fill="none" x="20399" y="5299" width="1003" height="303"/>
        <path fill="rgb(255,166,166)" stroke="none" d="M 20900,5600 L 20400,5600 20400,5300 21400,5300 21400,5600 20900,5600 Z"/>
        <path fill="none" stroke="rgb(255,166,166)" d="M 20900,5600 L 20400,5600 20400,5300 21400,5300 21400,5600 20900,5600 Z"/>
       </g>
      </g>
      <g class="com.sun.star.drawing.CustomShape">
       <g id="id30">
        <rect class="BoundingBox" stroke="none" fill="none" x="23399" y="5299" width="1003" height="303"/>
        <path fill="rgb(175,208,149)" stroke="none" d="M 23900,5600 L 23400,5600 23400,5300 24400,5300 24400,5600 23900,5600 Z"/>
        <path fill="none" stroke="rgb(175,208,149)" d="M 23900,5600 L 23400,5600 23400,5300 24400,5300 24400,5600 23900,5600 Z"/>
       </g>
      </g>
      <g class="com.sun.star.drawing.CustomShape">
       <g id="id31">
        <rect class="BoundingBox" stroke="none" fill="none" x="13849" y="3199" width="304" height="1004"/>
        <path fill="rgb(0,0,0)" stroke="none" d="M 13925,3200 L 13925,3950 13850,3950 14000,4201 14151,3950 14075,3950 14075,3200 13925,3200 Z"/>
        <path fill="none" stroke="rgb(0,0,0)" d="M 13925,3200 L 13925,3950 13850,3950 14000,4201 14151,3950 14075,3950 14075,3200 13925,3200 Z"/>
       </g>
      </g>
      <g class="com.sun.star.drawing.ConnectorShape">
       <g id="id32">
        <rect class="BoundingBox" stroke="none" fill="none" x="13999" y="12999" width="12103" height="4003"/>
        <path fill="none" stroke="rgb(0,0,0)" d="M 14000,13000 L 14154,13051"/>
        <path fill="none" stroke="rgb(0,0,0)" d="M 14230,13076 L 14384,13127"/>
        <path fill="none" stroke="rgb(0,0,0)" d="M 14461,13152 L 14614,13203"/>
        <path fill="none" stroke="rgb(0,0,0)" d="M 14691,13228 L 14844,13279"/>
        <path fill="none" stroke="rgb(0,0,0)" d="M 14921,13305 L 15075,13355"/>
        <path fill="none" stroke="rgb(0,0,0)" d="M 15151,13381 L 15305,13431"/>
        <path fill="none" stroke="rgb(0,0,0)" d="M 15382,13457 L 15535,13508"/>
        <path fill="none" stroke="rgb(0,0,0)" d="M 15612,13533 L 15766,13584"/>
        <path fill="none" stroke="rgb(0,0,0)" d="M 15842,13609 L 15996,13660"/>
        <path fill="none" stroke="rgb(0,0,0)" d="M 16073,13685 L 16226,13736"/>
        <path fill="none" stroke="rgb(0,0,0)" d="M 16303,13761 L 16456,13812"/>
        <path fill="none" stroke="rgb(0,0,0)" d="M 16533,13837 L 16687,13888"/>
        <path fill="none" stroke="rgb(0,0,0)" d="M 16764,13914 L 16917,13964"/>
        <path fill="none" stroke="rgb(0,0,0)" d="M 16994,13990 L 17147,14040"/>
        <path fill="none" stroke="rgb(0,0,0)" d="M 17224,14066 L 17378,14117"/>
        <path fill="none" stroke="rgb(0,0,0)" d="M 17454,14142 L 17608,14193"/>
        <path fill="none" stroke="rgb(0,0,0)" d="M 17685,14218 L 17838,14269"/>
        <path fill="none" stroke="rgb(0,0,0)" d="M 17915,14294 L 18069,14345"/>
        <path fill="none" stroke="rgb(0,0,0)" d="M 18145,14370 L 18299,14421"/>
        <path fill="none" stroke="rgb(0,0,0)" d="M 18376,14446 L 18529,14497"/>
        <path fill="none" stroke="rgb(0,0,0)" d="M 18606,14523 L 18759,14573"/>
        <path fill="none" stroke="rgb(0,0,0)" d="M 18836,14599 L 18990,14649"/>
        <path fill="none" stroke="rgb(0,0,0)" d="M 19066,14675 L 19220,14726"/>
        <path fill="none" stroke="rgb(0,0,0)" d="M 19297,14751 L 19450,14802"/>
        <path fill="none" stroke="rgb(0,0,0)" d="M 19527,14827 L 19681,14878"/>
        <path fill="none" stroke="rgb(0,0,0)" d="M 19757,14903 L 19911,14954"/>
        <path fill="none" stroke="rgb(0,0,0)" d="M 19988,14979 L 20141,15030"/>
        <path fill="none" stroke="rgb(0,0,0)" d="M 20218,15056 L 20371,15106"/>
        <path fill="none" stroke="rgb(0,0,0)" d="M 20448,15132 L 20602,15182"/>
        <path fill="none" stroke="rgb(0,0,0)" d="M 20678,15208 L 20832,15259"/>
        <path fill="none" stroke="rgb(0,0,0)" d="M 20909,15284 L 21062,15335"/>
        <path fill="none" stroke="rgb(0,0,0)" d="M 21139,15360 L 21293,15411"/>
        <path fill="none" stroke="rgb(0,0,0)" d="M 21369,15436 L 21523,15487"/>
        <path fill="none" stroke="rgb(0,0,0)" d="M 21600,15512 L 21753,15563"/>
        <path fill="none" stroke="rgb(0,0,0)" d="M 21830,15588 L 21983,15639"/>
        <path fill="none" stroke="rgb(0,0,0)" d="M 22060,15665 L 22214,15715"/>
        <path fill="none" stroke="rgb(0,0,0)" d="M 22291,15741 L 22444,15791"/>
        <path fill="none" stroke="rgb(0,0,0)" d="M 22521,15817 L 22674,15868"/>
        <path fill="none" stroke="rgb(0,0,0)" d="M 22751,15893 L 22905,15944"/>
        <path fill="none" stroke="rgb(0,0,0)" d="M 22981,15969 L 23135,16020"/>
        <path fill="none" stroke="rgb(0,0,0)" d="M 23212,16045 L 23365,16096"/>
        <path fill="none" stroke="rgb(0,0,0)" d="M 23442,16121 L 23596,16172"/>
        <path fill="none" stroke="rgb(0,0,0)" d="M 23672,16197 L 23826,16248"/>
        <path fill="none" stroke="rgb(0,0,0)" d="M 23903,16274 L 24056,16324"/>
        <path fill="none" stroke="rgb(0,0,0)" d="M 24133,16350 L 24286,16400"/>
        <path fill="none" stroke="rgb(0,0,0)" d="M 24363,16426 L 24517,16477"/>
        <path fill="none" stroke="rgb(0,0,0)" d="M 24593,16502 L 24747,16553"/>
        <path fill="none" stroke="rgb(0,0,0)" d="M 24824,16578 L 24977,16629"/>
        <path fill="none" stroke="rgb(0,0,0)" d="M 25054,16654 L 25208,16705"/>
        <path fill="none" stroke="rgb(0,0,0)" d="M 25284,16730 L 25438,16781"/>
        <path fill="none" stroke="rgb(0,0,0)" d="M 25515,16806 L 25668,16857"/>
        <path fill="none" stroke="rgb(0,0,0)" d="M 25745,16883 L 25898,16933"/>
        <path fill="none" stroke="rgb(0,0,0)" d="M 25975,16959 L 26100,17000"/>
       </g>
      </g>
      <g class="com.sun.star.drawing.ConnectorShape">
       <g id="id33">
        <rect class="BoundingBox" stroke="none" fill="none" x="14009" y="6699" width="12193" height="3195"/>
        <path fill="none" stroke="rgb(0,0,0)" d="M 26200,6700 L 26044,6741"/>
        <path fill="none" stroke="rgb(0,0,0)" d="M 25965,6761 L 25809,6802"/>
        <path fill="none" stroke="rgb(0,0,0)" d="M 25731,6823 L 25574,6864"/>
        <path fill="none" stroke="rgb(0,0,0)" d="M 25496,6884 L 25340,6925"/>
        <path fill="none" stroke="rgb(0,0,0)" d="M 25261,6946 L 25105,6987"/>
        <path fill="none" stroke="rgb(0,0,0)" d="M 25027,7007 L 24870,7048"/>
        <path fill="none" stroke="rgb(0,0,0)" d="M 24792,7069 L 24636,7110"/>
        <path fill="none" stroke="rgb(0,0,0)" d="M 24558,7130 L 24401,7171"/>
        <path fill="none" stroke="rgb(0,0,0)" d="M 24323,7192 L 24166,7232"/>
        <path fill="none" stroke="rgb(0,0,0)" d="M 24088,7253 L 23932,7294"/>
        <path fill="none" stroke="rgb(0,0,0)" d="M 23854,7314 L 23697,7355"/>
        <path fill="none" stroke="rgb(0,0,0)" d="M 23619,7376 L 23463,7417"/>
        <path fill="none" stroke="rgb(0,0,0)" d="M 23384,7437 L 23228,7478"/>
        <path fill="none" stroke="rgb(0,0,0)" d="M 23150,7499 L 22993,7540"/>
        <path fill="none" stroke="rgb(0,0,0)" d="M 22915,7560 L 22759,7601"/>
        <path fill="none" stroke="rgb(0,0,0)" d="M 22680,7622 L 22524,7663"/>
        <path fill="none" stroke="rgb(0,0,0)" d="M 22446,7683 L 22289,7724"/>
        <path fill="none" stroke="rgb(0,0,0)" d="M 22211,7744 L 22055,7785"/>
        <path fill="none" stroke="rgb(0,0,0)" d="M 21976,7806 L 21820,7847"/>
        <path fill="none" stroke="rgb(0,0,0)" d="M 21742,7867 L 21585,7908"/>
        <path fill="none" stroke="rgb(0,0,0)" d="M 21507,7929 L 21351,7970"/>
        <path fill="none" stroke="rgb(0,0,0)" d="M 21273,7990 L 21116,8031"/>
        <path fill="none" stroke="rgb(0,0,0)" d="M 21038,8052 L 20882,8093"/>
        <path fill="none" stroke="rgb(0,0,0)" d="M 20803,8113 L 20647,8154"/>
        <path fill="none" stroke="rgb(0,0,0)" d="M 20569,8175 L 20412,8216"/>
        <path fill="none" stroke="rgb(0,0,0)" d="M 20334,8236 L 20178,8277"/>
        <path fill="none" stroke="rgb(0,0,0)" d="M 20099,8297 L 19943,8338"/>
        <path fill="none" stroke="rgb(0,0,0)" d="M 19865,8359 L 19708,8400"/>
        <path fill="none" stroke="rgb(0,0,0)" d="M 19630,8420 L 19474,8461"/>
        <path fill="none" stroke="rgb(0,0,0)" d="M 19395,8482 L 19239,8523"/>
        <path fill="none" stroke="rgb(0,0,0)" d="M 19161,8543 L 19004,8584"/>
        <path fill="none" stroke="rgb(0,0,0)" d="M 18926,8605 L 18770,8646"/>
        <path fill="none" stroke="rgb(0,0,0)" d="M 18692,8666 L 18535,8707"/>
        <path fill="none" stroke="rgb(0,0,0)" d="M 18457,8728 L 18300,8769"/>
        <path fill="none" stroke="rgb(0,0,0)" d="M 18222,8789 L 18066,8830"/>
        <path fill="none" stroke="rgb(0,0,0)" d="M 17988,8850 L 17831,8891"/>
        <path fill="none" stroke="rgb(0,0,0)" d="M 17753,8912 L 17597,8953"/>
        <path fill="none" stroke="rgb(0,0,0)" d="M 17518,8973 L 17362,9014"/>
        <path fill="none" stroke="rgb(0,0,0)" d="M 17284,9035 L 17127,9076"/>
        <path fill="none" stroke="rgb(0,0,0)" d="M 17049,9096 L 16893,9137"/>
        <path fill="none" stroke="rgb(0,0,0)" d="M 16814,9158 L 16658,9199"/>
        <path fill="none" stroke="rgb(0,0,0)" d="M 16580,9219 L 16423,9260"/>
        <path fill="none" stroke="rgb(0,0,0)" d="M 16345,9281 L 16189,9321"/>
        <path fill="none" stroke="rgb(0,0,0)" d="M 16111,9342 L 15954,9383"/>
        <path fill="none" stroke="rgb(0,0,0)" d="M 15876,9403 L 15719,9444"/>
        <path fill="none" stroke="rgb(0,0,0)" d="M 15641,9465 L 15485,9506"/>
        <path fill="none" stroke="rgb(0,0,0)" d="M 15407,9526 L 15250,9567"/>
        <path fill="none" stroke="rgb(0,0,0)" d="M 15172,9588 L 15016,9629"/>
        <path fill="none" stroke="rgb(0,0,0)" d="M 14937,9649 L 14781,9690"/>
        <path fill="none" stroke="rgb(0,0,0)" d="M 14703,9711 L 14546,9752"/>
        <path fill="none" stroke="rgb(0,0,0)" d="M 14468,9772 L 14312,9813"/>
        <path fill="none" stroke="rgb(0,0,0)" d="M 14233,9833 L 14077,9874"/>
       </g>
      </g>
      <g class="com.sun.star.drawing.CustomShape">
       <g id="id34">
        <rect class="BoundingBox" stroke="none" fill="none" x="1999" y="9999" width="3004" height="1004"/>
        <path fill="rgb(114,159,207)" stroke="none" d="M 2166,10000 L 2167,10000 C 2138,10000 2109,10008 2083,10022 2058,10037 2037,10058 2022,10083 2008,10109 2000,10138 2000,10167 L 2000,10834 2000,10834 C 2000,10863 2008,10892 2022,10918 2037,10943 2058,10964 2083,10979 2109,10993 2138,11001 2167,11001 L 4834,11001 4834,11001 C 4863,11001 4892,10993 4918,10979 4943,10964 4964,10943 4979,10918 4993,10892 5001,10863 5001,10834 L 5001,10166 5001,10167 5001,10167 C 5001,10138 4993,10109 4979,10083 4964,10058 4943,10037 4918,10022 4892,10008 4863,10000 4834,10000 L 2166,10000 Z"/>
        <path fill="none" stroke="rgb(52,101,164)" d="M 2166,10000 L 2167,10000 C 2138,10000 2109,10008 2083,10022 2058,10037 2037,10058 2022,10083 2008,10109 2000,10138 2000,10167 L 2000,10834 2000,10834 C 2000,10863 2008,10892 2022,10918 2037,10943 2058,10964 2083,10979 2109,10993 2138,11001 2167,11001 L 4834,11001 4834,11001 C 4863,11001 4892,10993 4918,10979 4943,10964 4964,10943 4979,10918 4993,10892 5001,10863 5001,10834 L 5001,10166 5001,10167 5001,10167 C 5001,10138 4993,10109 4979,10083 4964,10058 4943,10037 4918,10022 4892,10008 4863,10000 4834,10000 L 2166,10000 Z"/>
       </g>
      </g>
      <g class="com.sun.star.drawing.CustomShape">
       <g id="id35">
        <rect class="BoundingBox" stroke="none" fill="none" x="4999" y="9999" width="6004" height="1004"/>
        <path fill="rgb(0,169,51)" stroke="none" d="M 5166,10000 L 5167,10000 C 5138,10000 5109,10008 5083,10022 5058,10037 5037,10058 5022,10083 5008,10109 5000,10138 5000,10167 L 5000,10834 5000,10834 C 5000,10863 5008,10892 5022,10918 5037,10943 5058,10964 5083,10979 5109,10993 5138,11001 5167,11001 L 10834,11001 10834,11001 C 10863,11001 10892,10993 10918,10979 10943,10964 10964,10943 10979,10918 10993,10892 11001,10863 11001,10834 L 11001,10166 11001,10167 11001,10167 C 11001,10138 10993,10109 10979,10083 10964,10058 10943,10037 10918,10022 10892,10008 10863,10000 10834,10000 L 5166,10000 Z"/>
        <path fill="none" stroke="rgb(21,132,102)" d="M 5166,10000 L 5167,10000 C 5138,10000 5109,10008 5083,10022 5058,10037 5037,10058 5022,10083 5008,10109 5000,10138 5000,10167 L 5000,10834 5000,10834 C 5000,10863 5008,10892 5022,10918 5037,10943 5058,10964 5083,10979 5109,10993 5138,11001 5167,11001 L 10834,11001 10834,11001 C 10863,11001 10892,10993 10918,10979 10943,10964 10964,10943 10979,10918 10993,10892 11001,10863 11001,10834 L 11001,10166 11001,10167 11001,10167 C 11001,10138 10993,10109 10979,10083 10964,10058 10943,10037 10918,10022 10892,10008 10863,10000 10834,10000 L 5166,10000 Z"/>
       </g>
      </g>
      <g class="com.sun.star.drawing.CustomShape">
       <g id="id36">
        <rect class="BoundingBox" stroke="none" fill="none" x="10999" y="9999" width="4004" height="1004"/>
        <path fill="rgb(114,159,207)" stroke="none" d="M 11166,10000 L 11167,10000 C 11138,10000 11109,10008 11083,10022 11058,10037 11037,10058 11022,10083 11008,10109 11000,10138 11000,10167 L 11000,10834 11000,10834 C 11000,10863 11008,10892 11022,10918 11037,10943 11058,10964 11083,10979 11109,10993 11138,11001 11167,11001 L 14834,11001 14834,11001 C 14863,11001 14892,10993 14918,10979 14943,10964 14964,10943 14979,10918 14993,10892 15001,10863 15001,10834 L 15000,10166 15001,10167 15001,10167 C 15001,10138 14993,10109 14979,10083 14964,10058 14943,10037 14918,10022 14892,10008 14863,10000 14834,10000 L 11166,10000 Z"/>
        <path fill="none" stroke="rgb(52,101,164)" d="M 11166,10000 L 11167,10000 C 11138,10000 11109,10008 11083,10022 11058,10037 11037,10058 11022,10083 11008,10109 11000,10138 11000,10167 L 11000,10834 11000,10834 C 11000,10863 11008,10892 11022,10918 11037,10943 11058,10964 11083,10979 11109,10993 11138,11001 11167,11001 L 14834,11001 14834,11001 C 14863,11001 14892,10993 14918,10979 14943,10964 14964,10943 14979,10918 14993,10892 15001,10863 15001,10834 L 15000,10166 15001,10167 15001,10167 C 15001,10138 14993,10109 14979,10083 14964,10058 14943,10037 14918,10022 14892,10008 14863,10000 14834,10000 L 11166,10000 Z"/>
       </g>
      </g>
      <g class="com.sun.star.drawing.CustomShape">
       <g id="id37">
        <rect class="BoundingBox" stroke="none" fill="none" x="14999" y="9999" width="8004" height="1004"/>
        <path fill="rgb(0,169,51)" stroke="none" d="M 15166,10000 L 15167,10000 C 15138,10000 15109,10008 15083,10022 15058,10037 15037,10058 15022,10083 15008,10109 15000,10138 15000,10167 L 15000,10834 15000,10834 C 15000,10863 15008,10892 15022,10918 15037,10943 15058,10964 15083,10979 15109,10993 15138,11001 15167,11001 L 22834,11001 22834,11001 C 22863,11001 22892,10993 22918,10979 22943,10964 22964,10943 22979,10918 22993,10892 23001,10863 23001,10834 L 23000,10166 23001,10167 23001,10167 C 23001,10138 22993,10109 22979,10083 22964,10058 22943,10037 22918,10022 22892,10008 22863,10000 22834,10000 L 15166,10000 Z"/>
        <path fill="none" stroke="rgb(21,132,102)" d="M 15166,10000 L 15167,10000 C 15138,10000 15109,10008 15083,10022 15058,10037 15037,10058 15022,10083 15008,10109 15000,10138 15000,10167 L 15000,10834 15000,10834 C 15000,10863 15008,10892 15022,10918 15037,10943 15058,10964 15083,10979 15109,10993 15138,11001 15167,11001 L 22834,11001 22834,11001 C 22863,11001 22892,10993 22918,10979 22943,10964 22964,10943 22979,10918 22993,10892 23001,10863 23001,10834 L 23000,10166 23001,10167 23001,10167 C 23001,10138 22993,10109 22979,10083 22964,10058 22943,10037 22918,10022 22892,10008 22863,10000 22834,10000 L 15166,10000 Z"/>
       </g>
      </g>
      <g class="com.sun.star.drawing.CustomShape">
       <g id="id38">
        <rect class="BoundingBox" stroke="none" fill="none" x="22999" y="9999" width="3004" height="1004"/>
        <path fill="rgb(114,159,207)" stroke="none" d="M 23166,10000 L 23167,10000 C 23138,10000 23109,10008 23083,10022 23058,10037 23037,10058 23022,10083 23008,10109 23000,10138 23000,10167 L 23000,10834 23000,10834 C 23000,10863 23008,10892 23022,10918 23037,10943 23058,10964 23083,10979 23109,10993 23138,11001 23167,11001 L 25834,11001 25834,11001 C 25863,11001 25892,10993 25918,10979 25943,10964 25964,10943 25979,10918 25993,10892 26001,10863 26001,10834 L 26001,10166 26001,10167 26001,10167 C 26001,10138 25993,10109 25979,10083 25964,10058 25943,10037 25918,10022 25892,10008 25863,10000 25834,10000 L 23166,10000 Z"/>
        <path fill="none" stroke="rgb(52,101,164)" d="M 23166,10000 L 23167,10000 C 23138,10000 23109,10008 23083,10022 23058,10037 23037,10058 23022,10083 23008,10109 23000,10138 23000,10167 L 23000,10834 23000,10834 C 23000,10863 23008,10892 23022,10918 23037,10943 23058,10964 23083,10979 23109,10993 23138,11001 23167,11001 L 25834,11001 25834,11001 C 25863,11001 25892,10993 25918,10979 25943,10964 25964,10943 25979,10918 25993,10892 26001,10863 26001,10834 L 26001,10166 26001,10167 26001,10167 C 26001,10138 25993,10109 25979,10083 25964,10058 25943,10037 25918,10022 25892,10008 25863,10000 25834,10000 L 23166,10000 Z"/>
       </g>
      </g>
      <g class="com.sun.star.drawing.CustomShape">
       <g id="id39">
        <rect class="BoundingBox" stroke="none" fill="none" x="8999" y="11999" width="3004" height="1004"/>
        <path fill="rgb(114,159,207)" stroke="none" d="M 9166,12000 L 9167,12000 C 9138,12000 9109,12008 9083,12022 9058,12037 9037,12058 9022,12083 9008,12109 9000,12138 9000,12167 L 9000,12834 9000,12834 C 9000,12863 9008,12892 9022,12918 9037,12943 9058,12964 9083,12979 9109,12993 9138,13001 9167,13001 L 11834,13001 11834,13001 C 11863,13001 11892,12993 11918,12979 11943,12964 11964,12943 11979,12918 11993,12892 12001,12863 12001,12834 L 12001,12166 12001,12167 12001,12167 C 12001,12138 11993,12109 11979,12083 11964,12058 11943,12037 11918,12022 11892,12008 11863,12000 11834,12000 L 9166,12000 Z"/>
        <path fill="none" stroke="rgb(52,101,164)" d="M 9166,12000 L 9167,12000 C 9138,12000 9109,12008 9083,12022 9058,12037 9037,12058 9022,12083 9008,12109 9000,12138 9000,12167 L 9000,12834 9000,12834 C 9000,12863 9008,12892 9022,12918 9037,12943 9058,12964 9083,12979 9109,12993 9138,13001 9167,13001 L 11834,13001 11834,13001 C 11863,13001 11892,12993 11918,12979 11943,12964 11964,12943 11979,12918 11993,12892 12001,12863 12001,12834 L 12001,12166 12001,12167 12001,12167 C 12001,12138 11993,12109 11979,12083 11964,12058 11943,12037 11918,12022 11892,12008 11863,12000 11834,12000 L 9166,12000 Z"/>
       </g>
      </g>
      <g class="com.sun.star.drawing.CustomShape">
       <g id="id40">
        <rect class="BoundingBox" stroke="none" fill="none" x="11999" y="11999" width="4004" height="1004"/>
        <path fill="rgb(114,159,207)" stroke="none" d="M 12166,12000 L 12167,12000 C 12138,12000 12109,12008 12083,12022 12058,12037 12037,12058 12022,12083 12008,12109 12000,12138 12000,12167 L 12000,12834 12000,12834 C 12000,12863 12008,12892 12022,12918 12037,12943 12058,12964 12083,12979 12109,12993 12138,13001 12167,13001 L 15834,13001 15834,13001 C 15863,13001 15892,12993 15918,12979 15943,12964 15964,12943 15979,12918 15993,12892 16001,12863 16001,12834 L 16000,12166 16001,12167 16001,12167 C 16001,12138 15993,12109 15979,12083 15964,12058 15943,12037 15918,12022 15892,12008 15863,12000 15834,12000 L 12166,12000 Z"/>
        <path fill="none" stroke="rgb(52,101,164)" d="M 12166,12000 L 12167,12000 C 12138,12000 12109,12008 12083,12022 12058,12037 12037,12058 12022,12083 12008,12109 12000,12138 12000,12167 L 12000,12834 12000,12834 C 12000,12863 12008,12892 12022,12918 12037,12943 12058,12964 12083,12979 12109,12993 12138,13001 12167,13001 L 15834,13001 15834,13001 C 15863,13001 15892,12993 15918,12979 15943,12964 15964,12943 15979,12918 15993,12892 16001,12863 16001,12834 L 16000,12166 16001,12167 16001,12167 C 16001,12138 15993,12109 15979,12083 15964,12058 15943,12037 15918,12022 15892,12008 15863,12000 15834,12000 L 12166,12000 Z"/>
       </g>
      </g>
      <g class="com.sun.star.drawing.CustomShape">
       <g id="id41">
        <rect class="BoundingBox" stroke="none" fill="none" x="15999" y="11999" width="3004" height="1004"/>
        <path fill="rgb(114,159,207)" stroke="none" d="M 16166,12000 L 16167,12000 C 16138,12000 16109,12008 16083,12022 16058,12037 16037,12058 16022,12083 16008,12109 16000,12138 16000,12167 L 16000,12834 16000,12834 C 16000,12863 16008,12892 16022,12918 16037,12943 16058,12964 16083,12979 16109,12993 16138,13001 16167,13001 L 18834,13001 18834,13001 C 18863,13001 18892,12993 18918,12979 18943,12964 18964,12943 18979,12918 18993,12892 19001,12863 19001,12834 L 19001,12166 19001,12167 19001,12167 C 19001,12138 18993,12109 18979,12083 18964,12058 18943,12037 18918,12022 18892,12008 18863,12000 18834,12000 L 16166,12000 Z"/>
        <path fill="none" stroke="rgb(52,101,164)" d="M 16166,12000 L 16167,12000 C 16138,12000 16109,12008 16083,12022 16058,12037 16037,12058 16022,12083 16008,12109 16000,12138 16000,12167 L 16000,12834 16000,12834 C 16000,12863 16008,12892 16022,12918 16037,12943 16058,12964 16083,12979 16109,12993 16138,13001 16167,13001 L 18834,13001 18834,13001 C 18863,13001 18892,12993 18918,12979 18943,12964 18964,12943 18979,12918 18993,12892 19001,12863 19001,12834 L 19001,12166 19001,12167 19001,12167 C 19001,12138 18993,12109 18979,12083 18964,12058 18943,12037 18918,12022 18892,12008 18863,12000 18834,12000 L 16166,12000 Z"/>
       </g>
      </g>
      <g class="com.sun.star.drawing.ConnectorShape">
       <g id="id42">
        <rect class="BoundingBox" stroke="none" fill="none" x="3499" y="10999" width="7002" height="1002"/>
        <path fill="none" stroke="rgb(52,101,164)" d="M 3500,11000 C 3500,11753 7001,11503 7001,11501 7001,11500 9434,11325 10242,11703"/>
        <path fill="rgb(52,101,164)" stroke="none" d="M 10500,12000 L 10309,11566 10087,11767 10500,12000 Z"/>
       </g>
      </g>
      <g class="com.sun.star.drawing.ConnectorShape">
       <g id="id43">
        <rect class="BoundingBox" stroke="none" fill="none" x="12999" y="10999" width="1002" height="1002"/>
        <path fill="none" stroke="rgb(52,101,164)" d="M 13000,11000 C 13000,11751 13550,11427 13834,11627"/>
        <path fill="rgb(52,101,164)" stroke="none" d="M 14000,12000 L 13942,11529 13671,11658 14000,12000 Z"/>
       </g>
      </g>
      <g class="com.sun.star.drawing.ConnectorShape">
       <g id="id44">
        <rect class="BoundingBox" stroke="none" fill="none" x="17500" y="10999" width="7002" height="1002"/>
        <path fill="none" stroke="rgb(52,101,164)" d="M 24500,11000 C 24500,11753 21001,11503 21001,11501 21001,11500 18566,11325 17758,11703"/>
        <path fill="rgb(52,101,164)" stroke="none" d="M 17500,12000 L 17913,11767 17691,11566 17500,12000 Z"/>
       </g>
      </g>
      <g class="com.sun.star.drawing.ConnectorShape">
       <g id="id45">
        <rect class="BoundingBox" stroke="none" fill="none" x="1899" y="12999" width="12103" height="4003"/>
        <path fill="none" stroke="rgb(0,0,0)" d="M 14000,13000 L 13846,13051"/>
        <path fill="none" stroke="rgb(0,0,0)" d="M 13770,13076 L 13616,13127"/>
        <path fill="none" stroke="rgb(0,0,0)" d="M 13539,13152 L 13386,13203"/>
        <path fill="none" stroke="rgb(0,0,0)" d="M 13309,13228 L 13156,13279"/>
        <path fill="none" stroke="rgb(0,0,0)" d="M 13079,13305 L 12925,13355"/>
        <path fill="none" stroke="rgb(0,0,0)" d="M 12849,13381 L 12695,13431"/>
        <path fill="none" stroke="rgb(0,0,0)" d="M 12618,13457 L 12465,13508"/>
        <path fill="none" stroke="rgb(0,0,0)" d="M 12388,13533 L 12234,13584"/>
        <path fill="none" stroke="rgb(0,0,0)" d="M 12158,13609 L 12004,13660"/>
        <path fill="none" stroke="rgb(0,0,0)" d="M 11927,13685 L 11774,13736"/>
        <path fill="none" stroke="rgb(0,0,0)" d="M 11697,13761 L 11544,13812"/>
        <path fill="none" stroke="rgb(0,0,0)" d="M 11467,13837 L 11313,13888"/>
        <path fill="none" stroke="rgb(0,0,0)" d="M 11236,13914 L 11083,13964"/>
        <path fill="none" stroke="rgb(0,0,0)" d="M 11006,13990 L 10853,14040"/>
        <path fill="none" stroke="rgb(0,0,0)" d="M 10776,14066 L 10622,14117"/>
        <path fill="none" stroke="rgb(0,0,0)" d="M 10546,14142 L 10392,14193"/>
        <path fill="none" stroke="rgb(0,0,0)" d="M 10315,14218 L 10162,14269"/>
        <path fill="none" stroke="rgb(0,0,0)" d="M 10085,14294 L 9931,14345"/>
        <path fill="none" stroke="rgb(0,0,0)" d="M 9855,14370 L 9701,14421"/>
        <path fill="none" stroke="rgb(0,0,0)" d="M 9624,14446 L 9471,14497"/>
        <path fill="none" stroke="rgb(0,0,0)" d="M 9394,14523 L 9241,14573"/>
        <path fill="none" stroke="rgb(0,0,0)" d="M 9164,14599 L 9010,14649"/>
        <path fill="none" stroke="rgb(0,0,0)" d="M 8934,14675 L 8780,14726"/>
        <path fill="none" stroke="rgb(0,0,0)" d="M 8703,14751 L 8550,14802"/>
        <path fill="none" stroke="rgb(0,0,0)" d="M 8473,14827 L 8319,14878"/>
        <path fill="none" stroke="rgb(0,0,0)" d="M 8243,14903 L 8089,14954"/>
        <path fill="none" stroke="rgb(0,0,0)" d="M 8012,14979 L 7859,15030"/>
        <path fill="none" stroke="rgb(0,0,0)" d="M 7782,15056 L 7629,15106"/>
        <path fill="none" stroke="rgb(0,0,0)" d="M 7552,15132 L 7398,15182"/>
        <path fill="none" stroke="rgb(0,0,0)" d="M 7322,15208 L 7168,15259"/>
        <path fill="none" stroke="rgb(0,0,0)" d="M 7091,15284 L 6938,15335"/>
        <path fill="none" stroke="rgb(0,0,0)" d="M 6861,15360 L 6707,15411"/>
        <path fill="none" stroke="rgb(0,0,0)" d="M 6631,15436 L 6477,15487"/>
        <path fill="none" stroke="rgb(0,0,0)" d="M 6400,15512 L 6247,15563"/>
        <path fill="none" stroke="rgb(0,0,0)" d="M 6170,15588 L 6017,15639"/>
        <path fill="none" stroke="rgb(0,0,0)" d="M 5940,15665 L 5786,15715"/>
        <path fill="none" stroke="rgb(0,0,0)" d="M 5709,15741 L 5556,15791"/>
        <path fill="none" stroke="rgb(0,0,0)" d="M 5479,15817 L 5326,15868"/>
        <path fill="none" stroke="rgb(0,0,0)" d="M 5249,15893 L 5095,15944"/>
        <path fill="none" stroke="rgb(0,0,0)" d="M 5019,15969 L 4865,16020"/>
        <path fill="none" stroke="rgb(0,0,0)" d="M 4788,16045 L 4635,16096"/>
        <path fill="none" stroke="rgb(0,0,0)" d="M 4558,16121 L 4404,16172"/>
        <path fill="none" stroke="rgb(0,0,0)" d="M 4328,16197 L 4174,16248"/>
        <path fill="none" stroke="rgb(0,0,0)" d="M 4097,16274 L 3944,16324"/>
        <path fill="none" stroke="rgb(0,0,0)" d="M 3867,16350 L 3714,16400"/>
        <path fill="none" stroke="rgb(0,0,0)" d="M 3637,16426 L 3483,16477"/>
        <path fill="none" stroke="rgb(0,0,0)" d="M 3407,16502 L 3253,16553"/>
        <path fill="none" stroke="rgb(0,0,0)" d="M 3176,16578 L 3023,16629"/>
        <path fill="none" stroke="rgb(0,0,0)" d="M 2946,16654 L 2792,16705"/>
        <path fill="none" stroke="rgb(0,0,0)" d="M 2716,16730 L 2562,16781"/>
        <path fill="none" stroke="rgb(0,0,0)" d="M 2485,16806 L 2332,16857"/>
        <path fill="none" stroke="rgb(0,0,0)" d="M 2255,16883 L 2102,16933"/>
        <path fill="none" stroke="rgb(0,0,0)" d="M 2025,16959 L 1900,17000"/>
       </g>
      </g>
      <g class="com.sun.star.drawing.ConnectorShape">
       <g id="id46">
        <rect class="BoundingBox" stroke="none" fill="none" x="1699" y="6699" width="12313" height="3195"/>
        <path fill="none" stroke="rgb(0,0,0)" d="M 1700,6700 L 1857,6741"/>
        <path fill="none" stroke="rgb(0,0,0)" d="M 1935,6761 L 2091,6801"/>
        <path fill="none" stroke="rgb(0,0,0)" d="M 2170,6822 L 2326,6862"/>
        <path fill="none" stroke="rgb(0,0,0)" d="M 2404,6883 L 2561,6923"/>
        <path fill="none" stroke="rgb(0,0,0)" d="M 2639,6944 L 2796,6984"/>
        <path fill="none" stroke="rgb(0,0,0)" d="M 2874,7004 L 3030,7045"/>
        <path fill="none" stroke="rgb(0,0,0)" d="M 3109,7065 L 3265,7106"/>
        <path fill="none" stroke="rgb(0,0,0)" d="M 3343,7126 L 3500,7167"/>
        <path fill="none" stroke="rgb(0,0,0)" d="M 3578,7187 L 3735,7228"/>
        <path fill="none" stroke="rgb(0,0,0)" d="M 3813,7248 L 3970,7289"/>
        <path fill="none" stroke="rgb(0,0,0)" d="M 4048,7309 L 4204,7349"/>
        <path fill="none" stroke="rgb(0,0,0)" d="M 4283,7370 L 4439,7410"/>
        <path fill="none" stroke="rgb(0,0,0)" d="M 4517,7431 L 4674,7471"/>
        <path fill="none" stroke="rgb(0,0,0)" d="M 4752,7491 L 4909,7532"/>
        <path fill="none" stroke="rgb(0,0,0)" d="M 4987,7552 L 5144,7593"/>
        <path fill="none" stroke="rgb(0,0,0)" d="M 5222,7613 L 5378,7654"/>
        <path fill="none" stroke="rgb(0,0,0)" d="M 5457,7674 L 5613,7715"/>
        <path fill="none" stroke="rgb(0,0,0)" d="M 5691,7735 L 5848,7776"/>
        <path fill="none" stroke="rgb(0,0,0)" d="M 5926,7796 L 6083,7836"/>
        <path fill="none" stroke="rgb(0,0,0)" d="M 6161,7857 L 6317,7897"/>
        <path fill="none" stroke="rgb(0,0,0)" d="M 6396,7918 L 6552,7958"/>
        <path fill="none" stroke="rgb(0,0,0)" d="M 6630,7978 L 6787,8019"/>
        <path fill="none" stroke="rgb(0,0,0)" d="M 6865,8039 L 7022,8080"/>
        <path fill="none" stroke="rgb(0,0,0)" d="M 7100,8100 L 7257,8141"/>
        <path fill="none" stroke="rgb(0,0,0)" d="M 7335,8161 L 7491,8202"/>
        <path fill="none" stroke="rgb(0,0,0)" d="M 7570,8222 L 7726,8263"/>
        <path fill="none" stroke="rgb(0,0,0)" d="M 7804,8283 L 7961,8323"/>
        <path fill="none" stroke="rgb(0,0,0)" d="M 8039,8344 L 8196,8384"/>
        <path fill="none" stroke="rgb(0,0,0)" d="M 8274,8405 L 8431,8445"/>
        <path fill="none" stroke="rgb(0,0,0)" d="M 8509,8466 L 8665,8506"/>
        <path fill="none" stroke="rgb(0,0,0)" d="M 8744,8526 L 8900,8567"/>
        <path fill="none" stroke="rgb(0,0,0)" d="M 8978,8587 L 9135,8628"/>
        <path fill="none" stroke="rgb(0,0,0)" d="M 9213,8648 L 9370,8689"/>
        <path fill="none" stroke="rgb(0,0,0)" d="M 9448,8709 L 9604,8750"/>
        <path fill="none" stroke="rgb(0,0,0)" d="M 9683,8770 L 9839,8811"/>
        <path fill="none" stroke="rgb(0,0,0)" d="M 9917,8831 L 10074,8871"/>
        <path fill="none" stroke="rgb(0,0,0)" d="M 10152,8892 L 10309,8932"/>
        <path fill="none" stroke="rgb(0,0,0)" d="M 10387,8953 L 10544,8993"/>
        <path fill="none" stroke="rgb(0,0,0)" d="M 10622,9013 L 10778,9054"/>
        <path fill="none" stroke="rgb(0,0,0)" d="M 10857,9074 L 11013,9115"/>
        <path fill="none" stroke="rgb(0,0,0)" d="M 11091,9135 L 11248,9176"/>
        <path fill="none" stroke="rgb(0,0,0)" d="M 11326,9196 L 11483,9237"/>
        <path fill="none" stroke="rgb(0,0,0)" d="M 11561,9257 L 11718,9298"/>
        <path fill="none" stroke="rgb(0,0,0)" d="M 11796,9318 L 11952,9358"/>
        <path fill="none" stroke="rgb(0,0,0)" d="M 12031,9379 L 12187,9419"/>
        <path fill="none" stroke="rgb(0,0,0)" d="M 12265,9440 L 12422,9480"/>
        <path fill="none" stroke="rgb(0,0,0)" d="M 12500,9500 L 12657,9541"/>
        <path fill="none" stroke="rgb(0,0,0)" d="M 12735,9561 L 12891,9602"/>
        <path fill="none" stroke="rgb(0,0,0)" d="M 12970,9622 L 13126,9663"/>
        <path fill="none" stroke="rgb(0,0,0)" d="M 13204,9683 L 13361,9724"/>
        <path fill="none" stroke="rgb(0,0,0)" d="M 13439,9744 L 13596,9785"/>
        <path fill="none" stroke="rgb(0,0,0)" d="M 13674,9805 L 13831,9845"/>
        <path fill="none" stroke="rgb(0,0,0)" d="M 13909,9866 L 14010,9892"/>
       </g>
      </g>
      <g class="com.sun.star.drawing.CustomShape">
       <g id="id47">
        <rect class="BoundingBox" stroke="none" fill="none" x="2999" y="17699" width="1003" height="303"/>
        <path fill="rgb(255,166,166)" stroke="none" d="M 3500,18000 L 3000,18000 3000,17700 4000,17700 4000,18000 3500,18000 Z"/>
        <path fill="none" stroke="rgb(255,166,166)" d="M 3500,18000 L 3000,18000 3000,17700 4000,17700 4000,18000 3500,18000 Z"/>
       </g>
      </g>
      <g class="com.sun.star.drawing.CustomShape">
       <g id="id48">
        <rect class="BoundingBox" stroke="none" fill="none" x="8994" y="17699" width="1003" height="303"/>
        <path fill="rgb(114,159,207)" stroke="none" d="M 9495,18000 L 8995,18000 8995,17700 9995,17700 9995,18000 9495,18000 Z"/>
        <path fill="none" stroke="rgb(114,159,207)" d="M 9495,18000 L 8995,18000 8995,17700 9995,17700 9995,18000 9495,18000 Z"/>
       </g>
      </g>
      <g class="com.sun.star.drawing.CustomShape">
       <g id="id49">
        <rect class="BoundingBox" stroke="none" fill="none" x="11994" y="17699" width="1003" height="303"/>
        <path fill="rgb(225,97,115)" stroke="none" d="M 12495,18000 L 11995,18000 11995,17700 12995,17700 12995,18000 12495,18000 Z"/>
        <path fill="none" stroke="rgb(225,97,115)" d="M 12495,18000 L 11995,18000 11995,17700 12995,17700 12995,18000 12495,18000 Z"/>
       </g>
      </g>
      <g class="com.sun.star.drawing.CustomShape">
       <g id="id50">
        <rect class="BoundingBox" stroke="none" fill="none" x="5994" y="17699" width="1003" height="303"/>
        <path fill="rgb(175,208,149)" stroke="none" d="M 6495,18000 L 5995,18000 5995,17700 6995,17700 6995,18000 6495,18000 Z"/>
        <path fill="none" stroke="rgb(175,208,149)" d="M 6495,18000 L 5995,18000 5995,17700 6995,17700 6995,18000 6495,18000 Z"/>
       </g>
      </g>
      <g class="com.sun.star.drawing.CustomShape">
       <g id="id51">
        <rect class="BoundingBox" stroke="none" fill="none" x="14994" y="17699" width="1003" height="303"/>
        <path fill="rgb(225,97,115)" stroke="none" d="M 15495,18000 L 14995,18000 14995,17700 15995,17700 15995,18000 15495,18000 Z"/>
        <path fill="none" stroke="rgb(225,97,115)" d="M 15495,18000 L 14995,18000 14995,17700 15995,17700 15995,18000 15495,18000 Z"/>
       </g>
      </g>
      <g class="com.sun.star.drawing.CustomShape">
       <g id="id52">
        <rect class="BoundingBox" stroke="none" fill="none" x="17994" y="17699" width="1003" height="303"/>
        <path fill="rgb(255,166,166)" stroke="none" d="M 18495,18000 L 17995,18000 17995,17700 18995,17700 18995,18000 18495,18000 Z"/>
        <path fill="none" stroke="rgb(255,166,166)" d="M 18495,18000 L 17995,18000 17995,17700 18995,17700 18995,18000 18495,18000 Z"/>
       </g>
      </g>
      <g class="com.sun.star.drawing.CustomShape">
       <g id="id53">
        <rect class="BoundingBox" stroke="none" fill="none" x="20994" y="17699" width="1003" height="303"/>
        <path fill="rgb(255,166,166)" stroke="none" d="M 21495,18000 L 20995,18000 20995,17700 21995,17700 21995,18000 21495,18000 Z"/>
        <path fill="none" stroke="rgb(255,166,166)" d="M 21495,18000 L 20995,18000 20995,17700 21995,17700 21995,18000 21495,18000 Z"/>
       </g>
      </g>
      <g class="com.sun.star.drawing.CustomShape">
       <g id="id54">
        <rect class="BoundingBox" stroke="none" fill="none" x="23994" y="17699" width="1003" height="303"/>
        <path fill="rgb(175,208,149)" stroke="none" d="M 24495,18000 L 23995,18000 23995,17700 24995,17700 24995,18000 24495,18000 Z"/>
        <path fill="none" stroke="rgb(175,208,149)" d="M 24495,18000 L 23995,18000 23995,17700 24995,17700 24995,18000 24495,18000 Z"/>
       </g>
      </g>
      <g class="com.sun.star.drawing.CustomShape">
       <g id="id55">
        <rect class="BoundingBox" stroke="none" fill="none" x="22994" y="17699" width="1003" height="303"/>
        <path fill="rgb(225,97,115)" stroke="none" d="M 23495,18000 L 22995,18000 22995,17700 23995,17700 23995,18000 23495,18000 Z"/>
        <path fill="none" stroke="rgb(225,97,115)" d="M 23495,18000 L 22995,18000 22995,17700 23995,17700 23995,18000 23495,18000 Z"/>
       </g>
      </g>
      <g class="com.sun.star.drawing.CustomShape">
       <g id="id56">
        <rect class="BoundingBox" stroke="none" fill="none" x="19994" y="17699" width="1003" height="303"/>
        <path fill="rgb(114,159,207)" stroke="none" d="M 20495,18000 L 19995,18000 19995,17700 20995,17700 20995,18000 20495,18000 Z"/>
        <path fill="none" stroke="rgb(114,159,207)" d="M 20495,18000 L 19995,18000 19995,17700 20995,17700 20995,18000 20495,18000 Z"/>
       </g>
      </g>
      <g class="com.sun.star.drawing.CustomShape">
       <g id="id57">
        <rect class="BoundingBox" stroke="none" fill="none" x="16994" y="17699" width="1003" height="303"/>
        <path fill="rgb(114,159,207)" stroke="none" d="M 17495,18000 L 16995,18000 16995,17700 17995,17700 17995,18000 17495,18000 Z"/>
        <path fill="none" stroke="rgb(114,159,207)" d="M 17495,18000 L 16995,18000 16995,17700 17995,17700 17995,18000 17495,18000 Z"/>
       </g>
      </g>
      <g class="com.sun.star.drawing.CustomShape">
       <g id="id58">
        <rect class="BoundingBox" stroke="none" fill="none" x="13994" y="17699" width="1003" height="303"/>
        <path fill="rgb(175,208,149)" stroke="none" d="M 14495,18000 L 13995,18000 13995,17700 14995,17700 14995,18000 14495,18000 Z"/>
        <path fill="none" stroke="rgb(175,208,149)" d="M 14495,18000 L 13995,18000 13995,17700 14995,17700 14995,18000 14495,18000 Z"/>
       </g>
      </g>
      <g class="com.sun.star.drawing.CustomShape">
       <g id="id59">
        <rect class="BoundingBox" stroke="none" fill="none" x="10994" y="17699" width="1003" height="303"/>
        <path fill="rgb(175,208,149)" stroke="none" d="M 11495,18000 L 10995,18000 10995,17700 11995,17700 11995,18000 11495,18000 Z"/>
        <path fill="none" stroke="rgb(175,208,149)" d="M 11495,18000 L 10995,18000 10995,17700 11995,17700 11995,18000 11495,18000 Z"/>
       </g>
      </g>
      <g class="com.sun.star.drawing.CustomShape">
       <g id="id60">
        <rect class="BoundingBox" stroke="none" fill="none" x="7994" y="17699" width="1003" height="303"/>
        <path fill="rgb(255,166,166)" stroke="none" d="M 8495,18000 L 7995,18000 7995,17700 8995,17700 8995,18000 8495,18000 Z"/>
        <path fill="none" stroke="rgb(255,166,166)" d="M 8495,18000 L 7995,18000 7995,17700 8995,17700 8995,18000 8495,18000 Z"/>
       </g>
      </g>
      <g class="com.sun.star.drawing.CustomShape">
       <g id="id61">
        <rect class="BoundingBox" stroke="none" fill="none" x="4994" y="17699" width="1003" height="303"/>
        <path fill="rgb(225,97,115)" stroke="none" d="M 5495,18000 L 4995,18000 4995,17700 5995,17700 5995,18000 5495,18000 Z"/>
        <path fill="none" stroke="rgb(225,97,115)" d="M 5495,18000 L 4995,18000 4995,17700 5995,17700 5995,18000 5495,18000 Z"/>
       </g>
      </g>
      <g class="com.sun.star.drawing.CustomShape">
       <g id="id62">
        <rect class="BoundingBox" stroke="none" fill="none" x="1999" y="17699" width="1003" height="303"/>
        <path fill="rgb(114,159,207)" stroke="none" d="M 2500,18000 L 2000,18000 2000,17700 3000,17700 3000,18000 2500,18000 Z"/>
        <path fill="none" stroke="rgb(114,159,207)" d="M 2500,18000 L 2000,18000 2000,17700 3000,17700 3000,18000 2500,18000 Z"/>
       </g>
      </g>
      <g class="com.sun.star.drawing.CustomShape">
       <g id="id63">
        <rect class="BoundingBox" stroke="none" fill="none" x="18994" y="17699" width="1003" height="303"/>
        <path fill="rgb(175,208,149)" stroke="none" d="M 19495,18000 L 18995,18000 18995,17700 19995,17700 19995,18000 19495,18000 Z"/>
        <path fill="none" stroke="rgb(175,208,149)" d="M 19495,18000 L 18995,18000 18995,17700 19995,17700 19995,18000 19495,18000 Z"/>
       </g>
      </g>
      <g class="com.sun.star.drawing.CustomShape">
       <g id="id64">
        <rect class="BoundingBox" stroke="none" fill="none" x="15994" y="17699" width="1003" height="303"/>
        <path fill="rgb(175,208,149)" stroke="none" d="M 16495,18000 L 15995,18000 15995,17700 16995,17700 16995,18000 16495,18000 Z"/>
        <path fill="none" stroke="rgb(175,208,149)" d="M 16495,18000 L 15995,18000 15995,17700 16995,17700 16995,18000 16495,18000 Z"/>
       </g>
      </g>
      <g class="com.sun.star.drawing.CustomShape">
       <g id="id65">
        <rect class="BoundingBox" stroke="none" fill="none" x="21999" y="17699" width="1003" height="303"/>
        <path fill="rgb(255,166,166)" stroke="none" d="M 22500,18000 L 22000,18000 22000,17700 23000,17700 23000,18000 22500,18000 Z"/>
        <path fill="none" stroke="rgb(255,166,166)" d="M 22500,18000 L 22000,18000 22000,17700 23000,17700 23000,18000 22500,18000 Z"/>
       </g>
      </g>
      <g class="com.sun.star.drawing.CustomShape">
       <g id="id66">
        <rect class="BoundingBox" stroke="none" fill="none" x="12994" y="17699" width="1003" height="303"/>
        <path fill="rgb(114,159,207)" stroke="none" d="M 13495,18000 L 12995,18000 12995,17700 13995,17700 13995,18000 13495,18000 Z"/>
        <path fill="none" stroke="rgb(114,159,207)" d="M 13495,18000 L 12995,18000 12995,17700 13995,17700 13995,18000 13495,18000 Z"/>
       </g>
      </g>
      <g class="com.sun.star.drawing.CustomShape">
       <g id="id67">
        <rect class="BoundingBox" stroke="none" fill="none" x="3994" y="17699" width="1003" height="303"/>
        <path fill="rgb(114,159,207)" stroke="none" d="M 4495,18000 L 3995,18000 3995,17700 4995,17700 4995,18000 4495,18000 Z"/>
        <path fill="none" stroke="rgb(114,159,207)" d="M 4495,18000 L 3995,18000 3995,17700 4995,17700 4995,18000 4495,18000 Z"/>
       </g>
      </g>
      <g class="com.sun.star.drawing.CustomShape">
       <g id="id68">
        <rect class="BoundingBox" stroke="none" fill="none" x="6994" y="17699" width="1003" height="303"/>
        <path fill="rgb(225,97,115)" stroke="none" d="M 7495,18000 L 6995,18000 6995,17700 7995,17700 7995,18000 7495,18000 Z"/>
        <path fill="none" stroke="rgb(225,97,115)" d="M 7495,18000 L 6995,18000 6995,17700 7995,17700 7995,18000 7495,18000 Z"/>
       </g>
      </g>
      <g class="com.sun.star.drawing.CustomShape">
       <g id="id69">
        <rect class="BoundingBox" stroke="none" fill="none" x="9994" y="17699" width="1003" height="303"/>
        <path fill="rgb(225,97,115)" stroke="none" d="M 10495,18000 L 9995,18000 9995,17700 10995,17700 10995,18000 10495,18000 Z"/>
        <path fill="none" stroke="rgb(225,97,115)" d="M 10495,18000 L 9995,18000 9995,17700 10995,17700 10995,18000 10495,18000 Z"/>
       </g>
      </g>
      <g class="com.sun.star.drawing.CustomShape">
       <g id="id70">
        <rect class="BoundingBox" stroke="none" fill="none" x="24999" y="17699" width="1003" height="303"/>
        <path fill="rgb(175,208,149)" stroke="none" d="M 25500,18000 L 25000,18000 25000,17700 26000,17700 26000,18000 25500,18000 Z"/>
        <path fill="none" stroke="rgb(175,208,149)" d="M 25500,18000 L 25000,18000 25000,17700 26000,17700 26000,18000 25500,18000 Z"/>
       </g>
      </g>
      <g class="com.sun.star.drawing.LineShape">
       <g id="id71">
        <rect class="BoundingBox" stroke="none" fill="none" x="4999" y="17399" width="3" height="1003"/>
        <path fill="none" stroke="rgb(0,0,0)" d="M 5000,17400 L 5000,18400"/>
       </g>
      </g>
      <g class="com.sun.star.drawing.LineShape">
       <g id="id72">
        <rect class="BoundingBox" stroke="none" fill="none" x="7999" y="17399" width="3" height="1003"/>
        <path fill="none" stroke="rgb(0,0,0)" d="M 8000,17400 L 8000,18400"/>
       </g>
      </g>
      <g class="com.sun.star.drawing.LineShape">
       <g id="id73">
        <rect class="BoundingBox" stroke="none" fill="none" x="13999" y="17399" width="3" height="1003"/>
        <path fill="none" stroke="rgb(0,0,0)" d="M 14000,17400 L 14000,18400"/>
       </g>
      </g>
      <g class="com.sun.star.drawing.LineShape">
       <g id="id74">
        <rect class="BoundingBox" stroke="none" fill="none" x="13999" y="17399" width="3" height="3"/>
        <path fill="none" stroke="rgb(0,0,0)" d="M 14000,17400 L 14000,17400 Z"/>
       </g>
      </g>
      <g class="com.sun.star.drawing.LineShape">
       <g id="id75">
        <rect class="BoundingBox" stroke="none" fill="none" x="16999" y="17399" width="3" height="1003"/>
        <path fill="none" stroke="rgb(0,0,0)" d="M 17000,17400 L 17000,18400"/>
       </g>
      </g>
      <g class="com.sun.star.drawing.LineShape">
       <g id="id76">
        <rect class="BoundingBox" stroke="none" fill="none" x="19999" y="17399" width="3" height="1003"/>
        <path fill="none" stroke="rgb(0,0,0)" d="M 20000,17400 L 20000,18400"/>
       </g>
      </g>
      <g class="com.sun.star.drawing.LineShape">
       <g id="id77">
        <rect class="BoundingBox" stroke="none" fill="none" x="22999" y="17399" width="3" height="1003"/>
        <path fill="none" stroke="rgb(0,0,0)" d="M 23000,17400 L 23000,18400"/>
       </g>
      </g>
      <g class="com.sun.star.drawing.LineShape">
       <g id="id78">
        <rect class="BoundingBox" stroke="none" fill="none" x="10999" y="17399" width="3" height="1003"/>
        <path fill="none" stroke="rgb(0,0,0)" d="M 11000,17400 L 11000,18400"/>
       </g>
      </g>
      <g class="com.sun.star.drawing.LineShape">
       <g id="id79">
        <rect class="BoundingBox" stroke="none" fill="none" x="1899" y="18999" width="24203" height="3"/>
        <path fill="none" stroke="rgb(0,0,0)" d="M 1900,19000 L 26100,19000"/>
       </g>
      </g>
      <g class="com.sun.star.drawing.LineShape">
       <g id="id80">
        <rect class="BoundingBox" stroke="none" fill="none" x="1899" y="16999" width="3" height="2003"/>
        <path fill="none" stroke="rgb(0,0,0)" d="M 1900,17000 L 1900,17053"/>
        <path fill="none" stroke="rgb(0,0,0)" d="M 1900,17085 L 1900,17139"/>
        <path fill="none" stroke="rgb(0,0,0)" d="M 1900,17171 L 1900,17224"/>
        <path fill="none" stroke="rgb(0,0,0)" d="M 1900,17256 L 1900,17309"/>
        <path fill="none" stroke="rgb(0,0,0)" d="M 1900,17342 L 1900,17395"/>
        <path fill="none" stroke="rgb(0,0,0)" d="M 1900,17427 L 1900,17480"/>
        <path fill="none" stroke="rgb(0,0,0)" d="M 1900,17513 L 1900,17566"/>
        <path fill="none" stroke="rgb(0,0,0)" d="M 1900,17598 L 1900,17651"/>
        <path fill="none" stroke="rgb(0,0,0)" d="M 1900,17683 L 1900,17737"/>
        <path fill="none" stroke="rgb(0,0,0)" d="M 1900,17769 L 1900,17822"/>
        <path fill="none" stroke="rgb(0,0,0)" d="M 1900,17854 L 1900,17907"/>
        <path fill="none" stroke="rgb(0,0,0)" d="M 1900,17940 L 1900,17993"/>
        <path fill="none" stroke="rgb(0,0,0)" d="M 1900,18025 L 1900,18078"/>
        <path fill="none" stroke="rgb(0,0,0)" d="M 1900,18111 L 1900,18164"/>
        <path fill="none" stroke="rgb(0,0,0)" d="M 1900,18196 L 1900,18249"/>
        <path fill="none" stroke="rgb(0,0,0)" d="M 1900,18281 L 1900,18335"/>
        <path fill="none" stroke="rgb(0,0,0)" d="M 1900,18367 L 1900,18420"/>
        <path fill="none" stroke="rgb(0,0,0)" d="M 1900,18452 L 1900,18505"/>
        <path fill="none" stroke="rgb(0,0,0)" d="M 1900,18538 L 1900,18591"/>
        <path fill="none" stroke="rgb(0,0,0)" d="M 1900,18623 L 1900,18676"/>
        <path fill="none" stroke="rgb(0,0,0)" d="M 1900,18709 L 1900,18762"/>
        <path fill="none" stroke="rgb(0,0,0)" d="M 1900,18794 L 1900,18847"/>
        <path fill="none" stroke="rgb(0,0,0)" d="M 1900,18879 L 1900,18933"/>
        <path fill="none" stroke="rgb(0,0,0)" d="M 1900,18965 L 1900,19000"/>
       </g>
      </g>
      <g class="com.sun.star.drawing.LineShape">
       <g id="id81">
        <rect class="BoundingBox" stroke="none" fill="none" x="26099" y="16999" width="3" height="2003"/>
        <path fill="none" stroke="rgb(0,0,0)" d="M 26100,17000 L 26100,19000"/>
       </g>
      </g>
      <g class="com.sun.star.drawing.LineShape">
       <g id="id82">
        <rect class="BoundingBox" stroke="none" fill="none" x="1899" y="16999" width="24203" height="3"/>
        <path fill="none" stroke="rgb(0,0,0)" d="M 1900,17000 L 26100,17000"/>
       </g>
      </g>
      <g class="com.sun.star.drawing.LineShape">
       <g id="id83">
        <rect class="BoundingBox" stroke="none" fill="none" x="1699" y="6699" width="24503" height="3"/>
        <path fill="none" stroke="rgb(0,0,0)" d="M 1700,6700 L 26200,6700"/>
       </g>
      </g>
      <g class="com.sun.star.drawing.LineShape">
       <g id="id84">
        <rect class="BoundingBox" stroke="none" fill="none" x="1699" y="4699" width="3" height="2003"/>
        <path fill="none" stroke="rgb(0,0,0)" d="M 1700,4700 L 1700,6700"/>
       </g>
      </g>
      <g class="com.sun.star.drawing.LineShape">
       <g id="id85">
        <rect class="BoundingBox" stroke="none" fill="none" x="26199" y="4699" width="3" height="2003"/>
        <path fill="none" stroke="rgb(0,0,0)" d="M 26200,4700 L 26200,6700"/>
       </g>
      </g>
      <g class="com.sun.star.drawing.LineShape">
       <g id="id86">
        <rect class="BoundingBox" stroke="none" fill="none" x="1699" y="4699" width="24503" height="3"/>
        <path fill="none" stroke="rgb(0,0,0)" d="M 1700,4700 L 26200,4700"/>
       </g>
      </g>
     </g>
    </g>
   </g>
  </g>
 </g>
</svg>