<?xml version="1.0" encoding="UTF-8" standalone="no"?>
<svg
   xmlns:dc="http://purl.org/dc/elements/1.1/"
   xmlns:cc="http://creativecommons.org/ns#"
   xmlns:rdf="http://www.w3.org/1999/02/22-rdf-syntax-ns#"
   xmlns:svg="http://www.w3.org/2000/svg"
   xmlns="http://www.w3.org/2000/svg"
   xmlns:sodipodi="http://sodipodi.sourceforge.net/DTD/sodipodi-0.dtd"
   xmlns:inkscape="http://www.inkscape.org/namespaces/inkscape"
   sodipodi:docname="dna.svg"
   inkscape:version="1.0 (4035a4fb49, 2020-05-01)"
   id="svg4171"
   height="290"
   width="300"
   version="1.0">
  <metadata
     id="metadata66">
    <rdf:RDF>
      <cc:Work
         rdf:about="">
        <dc:format>image/svg+xml</dc:format>
        <dc:type
           rdf:resource="http://purl.org/dc/dcmitype/StillImage" />
        <dc:title></dc:title>
      </cc:Work>
    </rdf:RDF>
  </metadata>
  <sodipodi:namedview
     inkscape:document-rotation="0"
     inkscape:current-layer="layer1"
     inkscape:window-maximized="1"
     inkscape:window-y="0"
     inkscape:window-x="0"
     inkscape:cy="143.54109"
     inkscape:cx="135.88556"
     inkscape:zoom="1.1625744"
     showgrid="false"
     id="namedview64"
     inkscape:window-height="713"
     inkscape:window-width="1366"
     inkscape:pageshadow="2"
     inkscape:pageopacity="0"
     guidetolerance="10"
     gridtolerance="10"
     objecttolerance="10"
     borderopacity="1"
     bordercolor="#666666"
     pagecolor="#ffffff" />
  <defs
     id="defs4173" />
  <g
     id="layer1"
     transform="translate(-254.92897,-149.92021)">
    <g
       id="g5011"
       style="display:inline"
       transform="translate(-237.2301,-187.1353)">
      <path
         inkscape:connector-curvature="0"
         id="path5000"
         style="fill:#b89b5c;fill-opacity:1;fill-rule:nonzero;stroke:#000000;stroke-width:1.5;stroke-linecap:round;stroke-linejoin:miter;stroke-miterlimit:4;stroke-opacity:1;stroke-dashoffset:0"
         d="m 564.95528,371.69983 c 0,0 4.42026,1.68911 13.36765,7.4786 8.9474,5.78949 16.53127,12.52052 16.63376,12.57383 1.79004,-1.97418 2.79227,-3.17269 4.28016,-5.48214 4.39973,-6.82908 -20.96102,-20.42069 -21.29105,-20.41416 l -12.99052,5.84387 z" />
      <path
         inkscape:connector-curvature="0"
         id="path4703"
         style="fill:#7df6a7;fill-opacity:1;fill-rule:evenodd;stroke:#000000;stroke-width:1.5;stroke-linecap:round;stroke-linejoin:miter;stroke-miterlimit:4;stroke-opacity:1;stroke-dashoffset:0;display:inline"
         d="m 591.43118,382.60458 0.10992,0 c 2.23511,-3.04122 0.18321,-4.16293 -1.52914,-5.24464 l -25.67554,-0.96864 c 1.92788,1.33065 0.003,-0.172 0.003,-0.172 1.92523,1.63798 3.02634,1.37641 0.66014,5.17616 l 0.14791,0.0286 26.32509,1.13838" />
      <path
         inkscape:connector-curvature="0"
         id="path4584"
         style="fill:#b89b5c;fill-opacity:1;fill-rule:evenodd;stroke:#000000;stroke-width:1.5;stroke-linecap:round;stroke-linejoin:miter;stroke-miterlimit:4;stroke-opacity:1;stroke-dashoffset:0"
         d="m 562.5588,466.87273 c 0,0 -9.72189,-2.74757 -17.71932,-8.2458 -7.99742,-5.49823 -13.7653,-13.24204 -13.93788,-13.38818 -0.32784,0.1753 -2.74883,5.78524 -3.37899,8.36569 -2.10206,8.60772 18.98563,20.04629 19.02272,20.23459 l 16.07326,-6.77527" />
      <path
         inkscape:connector-curvature="0"
         id="path4715"
         style="fill:#d67df6;fill-opacity:1;fill-rule:evenodd;stroke:#000000;stroke-width:1.5;stroke-linecap:round;stroke-linejoin:miter;stroke-miterlimit:4;stroke-opacity:1;stroke-dashoffset:0;display:inline"
         d="m 578.45958,402.55271 -10.46651,5.03354 0.051,-0.038 -6.68226,-0.038 -0.0295,-0.0272 c -3.13197,-3.08091 -0.1275,-3.54177 0.98022,-5.07423 0,0 -1.10772,1.53246 0.031,-0.029 l 16.116,0.17295 z" />
      <path
         inkscape:connector-curvature="0"
         id="path4707"
         style="fill:#f67da2;fill-opacity:1;fill-rule:evenodd;stroke:#000000;stroke-width:1.5;stroke-linecap:round;stroke-linejoin:round;stroke-miterlimit:4;stroke-opacity:1;stroke-dashoffset:0;display:inline"
         d="m 590.588,395.08601 5.36023,-4.5276 -31.8129,-0.61563 0.0684,0.01 -2e-5,4.4297 -10e-6,-0.0195 26.38429,0.7234 z" />
      <path
         inkscape:connector-curvature="0"
         id="path4948"
         style="fill:#b89b5c;fill-opacity:1;fill-rule:evenodd;stroke:#000000;stroke-width:1.5;stroke-linecap:round;stroke-linejoin:miter;stroke-miterlimit:4;stroke-opacity:1;stroke-dashoffset:0"
         d="m 562.27712,409.91232 c 0,0 -9.72189,-2.74757 -17.71932,-8.2458 -7.99742,-5.49823 -13.7653,-13.24204 -13.93788,-13.38818 -0.32784,0.1753 -2.74883,5.78524 -3.37899,8.36569 -2.10206,8.60772 18.98563,20.04629 19.02272,20.23459 l 16.07326,-6.77527" />
      <path
         inkscape:connector-curvature="0"
         id="path5002"
         style="fill:#f6d07d;fill-opacity:1;fill-rule:nonzero;stroke:#000000;stroke-width:1.5;stroke-linecap:round;stroke-linejoin:miter;stroke-miterlimit:4;stroke-opacity:1;stroke-dashoffset:0;display:inline"
         d="m 552.06551,357.82051 c -8.71547,1.87683 -24.54804,13.28553 -27.14467,20.66114 -2.23174,8.60323 -1.82532,15.22783 0.55973,21.19289 12.61843,14.09457 13.83066,12.49419 20.74599,17.16082 0,-0.14504 -21.43439,-10.69973 -18.98563,-20.19133 3.25313,-12.60942 13.6979,-21.61229 28.48954,-26.87272 l -3.66496,-11.9508 z" />
      <path
         inkscape:connector-curvature="0"
         id="path2898"
         style="fill:#f6d07d;fill-opacity:1;fill-rule:nonzero;stroke:#000000;stroke-width:1.5;stroke-linecap:round;stroke-linejoin:miter;stroke-miterlimit:4;stroke-opacity:1;stroke-dashoffset:0;display:inline"
         d="m 578.04021,365.84943 c 0,0 25.30547,13.41273 21.19664,20.42069 -12.01424,20.49132 -65.78267,29.0725 -74.03433,49.17194 -2.23174,8.60323 -1.82532,15.22783 0.55973,21.19289 12.61843,14.09457 13.83066,12.49419 20.74599,17.16082 0,-0.14504 -21.40874,-10.69315 -18.98563,-20.19133 7.96566,-31.22391 44.09371,-23.4973 75.14357,-53.26288 2.1362,-3.39721 2.51364,-8.99288 0.47275,-16.78703 0.0984,-4.16851 -14.82783,-10.60563 -25.09872,-17.7051 z" />
      <path
         inkscape:connector-curvature="0"
         id="path2902"
         style="fill:#d67df6;fill-opacity:1;fill-rule:evenodd;stroke:#000000;stroke-width:1.5;stroke-linecap:round;stroke-linejoin:miter;stroke-miterlimit:4;stroke-opacity:1;stroke-dashoffset:0;display:inline"
         d="m 564.99921,381.39546 c 2.51411,-3.77117 1.26509,-3.40285 -0.66014,-5.04083 0,0 1.92523,1.63798 -0.003,0.0367 l -19.31419,-1.53095 c -0.0356,-0.15974 -1.52077,0.83441 -3.38158,2.12006 -1.86082,1.28566 -4.09724,2.86281 -3.96618,3.06206 l 27.32474,1.35299 z" />
      <path
         inkscape:connector-curvature="0"
         id="path2910"
         style="fill:#7d88f6;fill-opacity:1;fill-rule:evenodd;stroke:#000000;stroke-width:1.5;stroke-linecap:round;stroke-linejoin:miter;stroke-miterlimit:4;stroke-opacity:1;stroke-dashoffset:0;display:inline"
         d="m 564.13533,389.94278 0.0684,4.43936 -35.94424,-0.49406 2.05752,-4.74794 33.81833,0.80264 z" />
      <path
         inkscape:connector-curvature="0"
         id="path2914"
         style="fill:#7df6a7;fill-opacity:1;fill-rule:evenodd;stroke:#000000;stroke-width:1.5;stroke-linecap:round;stroke-linejoin:miter;stroke-miterlimit:4;stroke-opacity:1;stroke-dashoffset:0;display:inline"
         d="m 561.33232,407.36514 c -3.10248,-2.93587 0.46157,-3.42396 1.21585,-4.95642 0,0 -0.75428,1.53246 0.031,-0.029 l -26.52788,-0.0704 c -1.0025,1.55188 -0.0137,0.0208 -0.0137,0.0208 -0.98884,1.53111 -1.40351,3.34929 0.83157,5.17377 l 0.066,0.006 24.39706,-0.14504 z" />
    </g>
    <g
       id="g4954"
       style="display:inline"
       transform="translate(-252.20223,-172.46899)">
      <path
         inkscape:connector-curvature="0"
         id="path4956"
         style="fill:#b89b5c;fill-opacity:1;fill-rule:nonzero;stroke:#000000;stroke-width:1.5;stroke-linecap:round;stroke-linejoin:miter;stroke-miterlimit:4;stroke-opacity:1;stroke-dashoffset:0"
         d="m 576.6524,409.96797 c 0,0 10.31092,4.75225 19.25831,10.54174 8.9474,5.78949 16.53127,12.52052 16.63376,12.57383 1.79004,-1.97418 2.79227,-3.17269 4.28016,-5.48214 4.39973,-6.82908 -25.90917,-23.48383 -25.76795,-23.4773 l -14.40428,5.84387 z" />
      <path
         inkscape:connector-curvature="0"
         id="path4958"
         style="fill:#f6d07d;fill-opacity:1;fill-rule:nonzero;stroke:#000000;stroke-width:1.5;stroke-linecap:round;stroke-linejoin:miter;stroke-miterlimit:4;stroke-opacity:1;stroke-dashoffset:0;display:inline"
         d="m 590.91546,404.11757 c 0,0 30.018,16.47587 25.90917,23.48383 -12.01424,20.49132 -65.78267,29.0725 -74.03433,49.17194 -2.23174,8.60323 -1.82532,15.22783 0.55973,21.19289 12.61843,14.09457 13.83066,12.49419 20.74599,17.16082 0,-0.14504 -21.40874,-10.69315 -18.98563,-20.19133 7.96566,-31.22391 44.09371,-23.4973 75.14357,-53.26288 2.1362,-3.39721 2.51364,-8.99288 0.47275,-16.78703 0.0984,-4.16851 -19.54036,-13.66877 -29.81125,-20.76824 z" />
      <path
         inkscape:connector-curvature="0"
         id="path4960"
         style="fill:#d67df6;fill-opacity:1;fill-rule:evenodd;stroke:#000000;stroke-width:1.5;stroke-linecap:round;stroke-linejoin:miter;stroke-miterlimit:4;stroke-opacity:1;stroke-dashoffset:0;display:inline"
         d="m 582.58699,422.72674 c 2.51411,-3.77117 1.26509,-3.40285 -0.66014,-5.04083 0,0 1.92523,1.63798 -0.003,0.0367 l -19.31419,-1.53095 c -0.0356,-0.15974 -1.52077,0.83441 -3.38158,2.12006 -1.86082,1.28566 -4.09724,2.86281 -3.96618,3.06206 l 27.32474,1.35299 z" />
      <path
         inkscape:connector-curvature="0"
         id="path4962"
         style="fill:#7df6a7;fill-opacity:1;fill-rule:evenodd;stroke:#000000;stroke-width:1.5;stroke-linecap:round;stroke-linejoin:miter;stroke-miterlimit:4;stroke-opacity:1;stroke-dashoffset:0;display:inline"
         d="m 578.9201,448.69642 c -3.10248,-2.93587 0.46157,-3.42396 1.21585,-4.95642 0,0 -0.75428,1.53246 0.031,-0.029 l -26.52788,-0.0704 c -1.0025,1.55188 -0.0137,0.0208 -0.0137,0.0208 -0.98884,1.53111 -1.40351,3.34929 0.83157,5.17377 l 0.066,0.006 24.39706,-0.14504 z" />
      <path
         inkscape:connector-curvature="0"
         id="path4964"
         style="fill:#7d88f6;fill-opacity:1;fill-rule:evenodd;stroke:#000000;stroke-width:1.5;stroke-linecap:round;stroke-linejoin:miter;stroke-miterlimit:4;stroke-opacity:1;stroke-dashoffset:0;display:inline"
         d="m 581.72311,431.27406 0.0684,4.43936 -35.94424,-0.49406 2.05752,-4.74794 33.81833,0.80264 z" />
      <path
         inkscape:connector-curvature="0"
         id="path4966"
         style="fill:#7df6a7;fill-opacity:1;fill-rule:evenodd;stroke:#000000;stroke-width:1.5;stroke-linecap:round;stroke-linejoin:miter;stroke-miterlimit:4;stroke-opacity:1;stroke-dashoffset:0;display:inline"
         d="m 609.01896,423.93586 0.10992,0 c 2.23511,-3.04122 0.18321,-4.16293 -1.52914,-5.24464 l -25.67554,-0.96864 c 1.92788,1.33065 0.003,-0.172 0.003,-0.172 1.92523,1.63798 3.02634,1.37641 0.66014,5.17616 l 0.14791,0.0286 26.32509,1.13838" />
      <path
         inkscape:connector-curvature="0"
         id="path4968"
         style="fill:#7d88f6;fill-opacity:1;fill-rule:nonzero;stroke:#000000;stroke-width:1.5;stroke-linecap:round;stroke-linejoin:miter;stroke-miterlimit:4;stroke-opacity:1;stroke-dashoffset:0"
         d="m 589.32853,411.69936 c 1.44094,-1.62478 0.91394,-4.11513 -0.69593,-5.35128 0,0 1.60987,1.23615 -0.22955,-0.0749 l -1.89785,-0.23833 0.0138,-0.0357 -11.69002,4.78578 0.009,0.0548 14.49029,0.85971 z" />
      <path
         inkscape:connector-curvature="0"
         id="path4970"
         style="fill:#b89b5c;fill-opacity:1;fill-rule:evenodd;stroke:#000000;stroke-width:1.5;stroke-linecap:round;stroke-linejoin:miter;stroke-miterlimit:4;stroke-opacity:1;stroke-dashoffset:0"
         d="m 580.14658,508.20401 c 0,0 -9.72189,-2.74757 -17.71932,-8.2458 -7.99742,-5.49823 -13.7653,-13.24204 -13.93788,-13.38818 -0.32784,0.1753 -2.74883,5.78524 -3.37899,8.36569 -2.10206,8.60772 18.98563,20.04629 19.02272,20.23459 l 16.07326,-6.77527" />
      <path
         inkscape:connector-curvature="0"
         id="path4972"
         style="fill:#d67df6;fill-opacity:1;fill-rule:evenodd;stroke:#000000;stroke-width:1.5;stroke-linecap:round;stroke-linejoin:miter;stroke-miterlimit:4;stroke-opacity:1;stroke-dashoffset:0;display:inline"
         d="m 596.04736,443.88399 -10.46651,5.03354 0.051,-0.038 -6.68226,-0.038 -0.0295,-0.0272 c -3.13197,-3.08091 -0.1275,-3.54177 0.98022,-5.07423 0,0 -1.10772,1.53246 0.031,-0.029 l 16.116,0.17295 z" />
      <path
         inkscape:connector-curvature="0"
         id="path4974"
         style="fill:#f67da2;fill-opacity:1;fill-rule:evenodd;stroke:#000000;stroke-width:1.5;stroke-linecap:round;stroke-linejoin:round;stroke-miterlimit:4;stroke-opacity:1;stroke-dashoffset:0;display:inline"
         d="m 608.17578,436.41729 5.36023,-4.5276 -31.8129,-0.61563 0.0684,0.01 -2e-5,4.4297 -10e-6,-0.0195 26.38429,0.7234 z" />
    </g>
    <path
       inkscape:connector-curvature="0"
       id="path4781"
       style="fill:#b89b5c;fill-opacity:1;fill-rule:nonzero;stroke:#000000;stroke-width:1.5;stroke-linecap:round;stroke-linejoin:miter;stroke-miterlimit:4;stroke-opacity:1;stroke-dashoffset:0"
       d="m 324.7264,293.96184 c 0,0 10.31092,4.75225 19.25831,10.54174 8.9474,5.78949 16.53127,12.52052 16.63376,12.57383 1.79004,-1.97418 2.79227,-3.17269 4.28016,-5.48214 4.39973,-6.82908 -25.90917,-23.48383 -25.76795,-23.4773 l -14.40428,5.84387 z" />
    <path
       inkscape:connector-curvature="0"
       id="path4783"
       style="fill:#f6d07d;fill-opacity:1;fill-rule:nonzero;stroke:#000000;stroke-width:1.5;stroke-linecap:round;stroke-linejoin:miter;stroke-miterlimit:4;stroke-opacity:1;stroke-dashoffset:0;display:inline"
       d="m 338.98946,288.11144 c 0,0 30.018,16.47587 25.90917,23.48383 -12.01424,20.49132 -65.78267,29.0725 -74.03433,49.17194 -2.23174,8.60323 -1.82532,15.22783 0.55973,21.19289 12.61843,14.09457 5.47647,8.09725 12.3918,12.76388 0,-0.14504 -13.05455,-6.29621 -10.63144,-15.79439 7.96566,-31.22391 44.09371,-23.4973 75.14357,-53.26288 2.1362,-3.39721 2.51364,-8.99288 0.47275,-16.78703 0.0984,-4.16851 -19.54036,-13.66877 -29.81125,-20.76824 z" />
    <path
       inkscape:connector-curvature="0"
       id="path4785"
       style="fill:#d67df6;fill-opacity:1;fill-rule:evenodd;stroke:#000000;stroke-width:1.5;stroke-linecap:round;stroke-linejoin:miter;stroke-miterlimit:4;stroke-opacity:1;stroke-dashoffset:0;display:inline"
       d="m 330.66099,306.72061 c 2.51411,-3.77117 1.26509,-3.40285 -0.66014,-5.04083 0,0 1.92523,1.63798 -0.003,0.0367 l -19.31419,-1.53095 c -0.0356,-0.15974 -1.52077,0.83441 -3.38158,2.12006 -1.86082,1.28566 -4.09724,2.86281 -3.96618,3.06206 l 27.32474,1.35299 z" />
    <path
       inkscape:connector-curvature="0"
       id="path4787"
       style="fill:#7df6a7;fill-opacity:1;fill-rule:evenodd;stroke:#000000;stroke-width:1.5;stroke-linecap:round;stroke-linejoin:miter;stroke-miterlimit:4;stroke-opacity:1;stroke-dashoffset:0;display:inline"
       d="m 326.9941,332.69029 c -3.10248,-2.93587 0.46157,-3.42396 1.21585,-4.95642 0,0 -0.75428,1.53246 0.031,-0.029 l -26.52788,-0.0704 c -1.0025,1.55188 -0.0137,0.0208 -0.0137,0.0208 -0.98884,1.53111 -1.40351,3.34929 0.83157,5.17377 l 0.066,0.006 L 326.994,332.69 z" />
    <path
       inkscape:connector-curvature="0"
       id="path4789"
       style="fill:#7d88f6;fill-opacity:1;fill-rule:evenodd;stroke:#000000;stroke-width:1.5;stroke-linecap:round;stroke-linejoin:miter;stroke-miterlimit:4;stroke-opacity:1;stroke-dashoffset:0;display:inline"
       d="m 329.79711,315.26793 0.0684,4.43936 -35.94424,-0.49406 2.05752,-4.74794 33.81833,0.80264 z" />
    <path
       inkscape:connector-curvature="0"
       id="path4791"
       style="fill:#7df6a7;fill-opacity:1;fill-rule:evenodd;stroke:#000000;stroke-width:1.5;stroke-linecap:round;stroke-linejoin:miter;stroke-miterlimit:4;stroke-opacity:1;stroke-dashoffset:0;display:inline"
       d="m 357.09296,307.92973 0.10992,0 c 2.23511,-3.04122 0.18321,-4.16293 -1.52914,-5.24464 l -25.67554,-0.96864 c 1.92788,1.33065 0.003,-0.172 0.003,-0.172 1.92523,1.63798 3.02634,1.37641 0.66014,5.17616 l 0.14791,0.0286 26.32509,1.13838" />
    <path
       inkscape:connector-curvature="0"
       id="path4793"
       style="fill:#7d88f6;fill-opacity:1;fill-rule:nonzero;stroke:#000000;stroke-width:1.5;stroke-linecap:round;stroke-linejoin:miter;stroke-miterlimit:4;stroke-opacity:1;stroke-dashoffset:0"
       d="m 337.40253,295.69323 c 1.44094,-1.62478 0.91394,-4.11513 -0.69593,-5.35128 0,0 1.60987,1.23615 -0.22955,-0.0749 l -1.89785,-0.23833 0.0138,-0.0357 -11.69002,4.78578 0.009,0.0548 14.49029,0.85971 z" />
    <path
       inkscape:connector-curvature="0"
       id="path4797"
       style="fill:#d67df6;fill-opacity:1;fill-rule:evenodd;stroke:#000000;stroke-width:1.5;stroke-linecap:round;stroke-linejoin:miter;stroke-miterlimit:4;stroke-opacity:1;stroke-dashoffset:0;display:inline"
       d="m 344.12136,327.87786 -10.46651,5.03354 0.051,-0.038 -6.68226,-0.038 -0.0295,-0.0272 c -3.13197,-3.08091 -0.1275,-3.54177 0.98022,-5.07423 0,0 -1.10772,1.53246 0.031,-0.029 l 16.116,0.17295 z" />
    <path
       inkscape:connector-curvature="0"
       id="path4799"
       style="fill:#f67da2;fill-opacity:1;fill-rule:evenodd;stroke:#000000;stroke-width:1.5;stroke-linecap:round;stroke-linejoin:round;stroke-miterlimit:4;stroke-opacity:1;stroke-dashoffset:0;display:inline"
       d="m 356.24978,320.41116 5.36023,-4.5276 -31.8129,-0.61563 0.0684,0.01 -2e-5,4.4297 -1e-5,-0.0195 26.38429,0.7234 z" />
    <path
       inkscape:connector-curvature="0"
       id="path4803"
       style="fill:#b89b5c;fill-opacity:1;fill-rule:nonzero;stroke:#000000;stroke-width:1.5;stroke-linecap:round;stroke-linejoin:miter;stroke-miterlimit:4;stroke-opacity:1;stroke-dashoffset:0"
       d="m 325.50193,350.40181 c 0,0 10.31092,4.75225 19.25831,10.54174 8.9474,5.78949 16.53127,12.52052 16.63376,12.57383 1.79004,-1.97418 2.79227,-3.17269 4.28016,-5.48214 4.39973,-6.82908 -25.90917,-23.48383 -25.76795,-23.4773 l -14.40428,5.84387 z" />
    <path
       inkscape:connector-curvature="0"
       id="path4807"
       style="fill:#d67df6;fill-opacity:1;fill-rule:evenodd;stroke:#000000;stroke-width:1.5;stroke-linecap:round;stroke-linejoin:miter;stroke-miterlimit:4;stroke-opacity:1;stroke-dashoffset:0;display:inline"
       d="m 331.43652,363.16058 c 2.51411,-3.77117 1.26509,-3.40285 -0.66014,-5.04083 0,0 1.92523,1.63798 -0.003,0.0367 l -19.31419,-1.53095 c -0.0356,-0.15974 -1.52077,0.83441 -3.38158,2.12006 -1.86082,1.28566 -4.09724,2.86281 -3.96618,3.06206 l 27.32474,1.35299 z" />
    <path
       inkscape:connector-curvature="0"
       id="path4813"
       style="fill:#7df6a7;fill-opacity:1;fill-rule:evenodd;stroke:#000000;stroke-width:1.5;stroke-linecap:round;stroke-linejoin:miter;stroke-miterlimit:4;stroke-opacity:1;stroke-dashoffset:0;display:inline"
       d="m 357.86849,364.3697 0.10992,0 c 2.23511,-3.04122 0.18321,-4.16293 -1.52914,-5.24464 l -25.67554,-0.96864 c 1.92788,1.33065 0.003,-0.172 0.003,-0.172 1.92523,1.63798 3.02634,1.37641 0.66014,5.17616 l 0.14791,0.0286 26.32509,1.13838" />
    <path
       inkscape:connector-curvature="0"
       id="path4815"
       style="fill:#7d88f6;fill-opacity:1;fill-rule:nonzero;stroke:#000000;stroke-width:1.5;stroke-linecap:round;stroke-linejoin:miter;stroke-miterlimit:4;stroke-opacity:1;stroke-dashoffset:0"
       d="m 338.17806,352.1332 c 1.44094,-1.62478 0.91394,-4.11513 -0.69593,-5.35128 0,0 1.60987,1.23615 -0.22955,-0.0749 l -1.89785,-0.23833 0.0138,-0.0357 -11.69002,4.78578 0.009,0.0548 14.49029,0.85971 z" />
    <path
       inkscape:connector-curvature="0"
       id="path4821"
       style="fill:#f67da2;fill-opacity:1;fill-rule:evenodd;stroke:#000000;stroke-width:1.5;stroke-linecap:round;stroke-linejoin:round;stroke-miterlimit:4;stroke-opacity:1;stroke-dashoffset:0;display:inline"
       d="m 357.02531,376.85113 5.36023,-4.5276 -31.8129,-0.61563 0.0684,0.01 -2e-5,4.4297 -1e-5,-0.0195 26.38429,0.7234 z" />
    <path
       inkscape:connector-curvature="0"
       id="path4909"
       style="fill:#b89b5c;fill-opacity:1;fill-rule:evenodd;stroke:#000000;stroke-width:1.5;stroke-linecap:round;stroke-linejoin:miter;stroke-miterlimit:4;stroke-opacity:1;stroke-dashoffset:0"
       d="m 314.47947,386.20752 c -7.99742,-5.49823 -17.74351,-15.49748 -17.91609,-15.64362 -0.32784,0.1753 -2.74883,5.78524 -3.37899,8.36569 -2.10206,8.60772 10.56455,15.45298 10.60164,15.64128 l 10.69344,-8.36335 z" />
    <path
       inkscape:connector-curvature="0"
       id="path4911"
       style="fill:#f6d07d;fill-opacity:1;fill-rule:nonzero;stroke:#000000;stroke-width:1.5;stroke-linecap:round;stroke-linejoin:miter;stroke-miterlimit:4;stroke-opacity:1;stroke-dashoffset:0;display:inline"
       d="m 339.76499,344.55141 c 0,0 29.5047,16.19918 25.90917,23.48383 -2.69904,5.46833 -18.52138,14.04247 -26.11514,18.72545 l 9.58255,10.13561 c 8.62521,-4.84225 15.73342,-10.08663 19.96192,-14.78962 2.1362,-3.39721 2.51364,-8.99288 0.47275,-16.78703 0.0984,-4.16851 -19.54036,-13.66877 -29.81125,-20.76824 z" />
    <path
       inkscape:connector-curvature="0"
       id="path4811"
       style="fill:#7d88f6;fill-opacity:1;fill-rule:evenodd;stroke:#000000;stroke-width:1.5;stroke-linecap:round;stroke-linejoin:miter;stroke-miterlimit:4;stroke-opacity:1;stroke-dashoffset:0;display:inline"
       d="m 330.57264,371.7079 0.0684,4.43936 -35.94424,-0.49406 2.05752,-4.74794 33.81833,0.80264 z" />
    <path
       inkscape:connector-curvature="0"
       id="path4238"
       style="fill:#7df6a7;fill-opacity:1;fill-rule:evenodd;stroke:#000000;stroke-width:1.5;stroke-linecap:round;stroke-linejoin:miter;stroke-miterlimit:4;stroke-opacity:1;stroke-dashoffset:0;display:inline"
       d="m 430.39055,206.17881 0.10992,0 -0.0139,-5.24464 -26.68569,-0.21103 0.15771,5.50924 26.473,-0.0957" />
    <path
       inkscape:connector-curvature="0"
       id="path4240"
       style="fill:#d67df6;fill-opacity:1;fill-rule:evenodd;stroke:#000000;stroke-width:1.5;stroke-linecap:round;stroke-linejoin:miter;stroke-miterlimit:4;stroke-opacity:1;stroke-dashoffset:0;display:inline"
       d="m 430.59638,233.24371 -0.15771,-7.02446 -26.6378,0.23681 0.22838,6.44482 26.56713,0.34283 z" />
    <path
       inkscape:connector-curvature="0"
       id="path4242"
       style="fill:#f67da2;fill-opacity:1;fill-rule:evenodd;stroke:#000000;stroke-width:1.5;stroke-linecap:round;stroke-linejoin:round;stroke-miterlimit:4;stroke-opacity:1;stroke-dashoffset:0;display:inline"
       d="m 430.001,261.45536 0.0569,-6.29536 -26.25706,-0.3631 0.32094,0.01 -0.25255,6.70255 26.13174,-0.0538 z" />
    <path
       inkscape:connector-curvature="0"
       id="path4244"
       style="fill:#7d88f6;fill-opacity:1;fill-rule:evenodd;stroke:#000000;stroke-width:1.5;stroke-linecap:round;stroke-linejoin:miter;stroke-miterlimit:4;stroke-opacity:1;stroke-dashoffset:0;display:inline"
       d="m 430.04306,283.33428 0.0684,6.7122 -26.09526,0.011 -0.21532,-6.76824 26.24219,0.045 z" />
    <path
       inkscape:connector-curvature="0"
       id="path4250"
       style="fill:#f6d07d;fill-opacity:1;fill-rule:nonzero;stroke:#000000;stroke-width:1.49999988;stroke-linecap:round;stroke-linejoin:miter;stroke-miterlimit:4;stroke-opacity:1;stroke-dashoffset:0;display:inline"
       d="m 433.50401,336.92379 -33.19109,-0.004 -0.0476,14.0503 33.31115,-0.0247 -0.0725,-14.02153 z" />
    <text
       xml:space="preserve"
       id="text4279"
       style="font-style:normal;font-weight:normal;font-size:12px;line-height:0%;font-family:Arial;fill:#000000;fill-opacity:1;stroke:none"
       y="207.36958"
       x="435.37573"><tspan
         id="tspan4281"
         y="207.36958"
         x="435.37573">= Adenina</tspan></text>
    <text
       xml:space="preserve"
       id="text4283"
       style="font-style:normal;font-weight:normal;font-size:12px;line-height:0%;font-family:Arial;fill:#000000;fill-opacity:1;stroke:none"
       y="234.13861"
       x="435.37573"><tspan
         id="tspan4285"
         y="234.13861"
         x="435.37573">= Timina</tspan></text>
    <text
       xml:space="preserve"
       id="text4287"
       style="font-style:normal;font-weight:normal;font-size:12px;line-height:0%;font-family:Arial;fill:#000000;fill-opacity:1;stroke:none"
       y="262.01358"
       x="435.04742"><tspan
         id="tspan4289"
         y="262.01358"
         x="435.04742">= Citosina</tspan></text>
    <text
       xml:space="preserve"
       id="text4291"
       style="font-style:normal;font-weight:normal;font-size:12px;line-height:0%;font-family:Arial;fill:#000000;fill-opacity:1;stroke:none"
       y="290.65271"
       x="435.04742"><tspan
         id="tspan4293"
         y="290.65271"
         x="435.04742">= Guanina</tspan></text>
    <text
       xml:space="preserve"
       id="text4295"
       style="font-style:normal;font-variant:normal;font-weight:normal;font-stretch:normal;line-height:0%;font-family:Arial;-inkscape-font-specification:Arial;text-align:start;writing-mode:lr-tb;text-anchor:start;fill:#000000;fill-opacity:1;stroke:none"
       y="347.931"
       x="437.21487"><tspan
         style="font-size:12px;line-height:1.25"
         y="347.931"
         x="437.21487"
         id="tspan3052"
         sodipodi:role="line">= Struttura laterale</tspan><tspan
         style="font-size:12px;line-height:1.25"
         y="362.931"
         x="437.21487"
         id="tspan3054"
         sodipodi:role="line">   (gruppo fosfato</tspan><tspan
         style="font-size:12px;line-height:1.25"
         y="377.931"
         x="437.21487"
         id="tspan3056"
         sodipodi:role="line">   e 2-deossiribosio)</tspan></text>
    <text
       xml:space="preserve"
       id="text4301"
       style="font-style:normal;font-weight:normal;font-size:18px;line-height:0%;font-family:Arial;fill:#000000;fill-opacity:1;stroke:none"
       y="418.49146"
       x="307.59146"><tspan
         id="tspan4303"
         y="418.49146"
         x="307.59146">DNA</tspan></text>
    <rect
       id="rect4307"
       style="fill:none;stroke:none"
       y="152.83803"
       x="254.92897"
       rx="0.4548682"
       height="287.08218"
       width="271.77112" />
  </g>
</svg>
